# Blender v2.93.2 OBJ File: 'sheep.blend'
# www.blender.org
mtllib sheep.mtl
o sheep.body_Cube.006
v -0.800000 2.400710 -1.761960
v -0.800000 2.400710 1.438040
v -0.800000 3.600710 -1.761960
v -0.800000 3.600710 1.438040
v 0.800000 2.400710 -1.761960
v 0.800000 2.400710 1.438040
v 0.800000 3.600710 -1.761960
v 0.800000 3.600710 1.438040
vt 0.531250 0.062500
vt 0.531250 0.562500
vt 0.437500 0.562500
vt 0.437500 0.062500
vt 0.875000 0.062500
vt 0.875000 0.562500
vt 0.750000 0.562500
vt 0.750000 0.062500
vt 0.656250 0.562500
vt 0.656250 0.062500
vt 0.656250 0.750000
vt 0.781250 0.750000
vt 0.781250 0.562500
vt 0.656250 0.562500
vt 0.656250 0.750000
vt 0.531250 0.750000
vn -1.0000 0.0000 0.0000
vn 0.0000 1.0000 0.0000
vn 1.0000 0.0000 0.0000
vn 0.0000 -1.0000 -0.0000
vn 0.0000 0.0000 -1.0000
vn 0.0000 0.0000 1.0000
usemtl None
s off
f 1/1/1 2/2/1 4/3/1 3/4/1
f 3/5/2 4/6/2 8/7/2 7/8/2
f 7/8/3 8/7/3 6/9/3 5/10/3
f 5/10/4 6/9/4 2/2/4 1/1/4
f 3/11/5 7/12/5 5/13/5 1/14/5
f 8/15/6 4/16/6 2/2/6 6/9/6
o fur.head_Cube.011
v -0.713419 3.060485 2.400333
v -0.713419 4.487322 2.400333
v -0.713419 3.060485 0.973496
v -0.713419 4.487323 0.973496
v 0.713419 3.060485 2.400333
v 0.713419 4.487322 2.400333
v 0.713419 3.060485 0.973496
v 0.713419 4.487323 0.973496
vt 0.093750 0.625000
vt 0.093750 0.812500
vt 0.000000 0.812500
vt 0.000000 0.625000
vt 0.375000 0.625000
vt 0.375000 0.812500
vt 0.281250 0.812500
vt 0.281250 0.625000
vt 0.187500 0.812500
vt 0.187500 0.625000
vt 0.281250 1.000000
vt 0.187500 1.000000
vt 0.187500 0.812500
vt 0.281250 0.812500
vt 0.187500 1.000000
vt 0.093750 1.000000
vn -1.0000 0.0000 0.0000
vn 0.0000 -0.0000 -1.0000
vn 1.0000 0.0000 0.0000
vn 0.0000 0.0000 1.0000
vn 0.0000 -1.0000 0.0000
vn 0.0000 1.0000 0.0000
usemtl Material.002
s off
f 9/17/7 10/18/7 12/19/7 11/20/7
f 11/21/8 12/22/8 16/23/8 15/24/8
f 15/24/9 16/23/9 14/25/9 13/26/9
f 13/26/10 14/25/10 10/18/10 9/17/10
f 11/27/11 15/28/11 13/29/11 9/30/11
f 16/31/12 12/32/12 10/18/12 14/25/12
o fur.leg.back.left.top_Cube.010
v 0.097080 1.082333 -1.125701
v 0.097080 2.415992 -1.125701
v 0.097080 1.082333 -2.125701
v 0.097080 2.415992 -2.125701
v 1.097080 1.082333 -1.125701
v 1.097080 2.415992 -1.125701
v 1.097080 1.082333 -2.125701
v 1.097080 2.415992 -2.125701
vt 0.062500 0.187500
vt 0.062500 0.375000
vt -0.000000 0.375000
vt 0.000000 0.187500
vt 0.250000 0.187500
vt 0.250000 0.375000
vt 0.187500 0.375000
vt 0.187500 0.187500
vt 0.125000 0.375000
vt 0.125000 0.187500
vt 0.187500 0.500000
vt 0.125000 0.500000
vt 0.125000 0.375000
vt 0.187500 0.375000
vt 0.125000 0.500000
vt 0.062500 0.500000
vn -1.0000 0.0000 0.0000
vn 0.0000 0.0000 -1.0000
vn 1.0000 0.0000 0.0000
vn 0.0000 0.0000 1.0000
vn 0.0000 -1.0000 0.0000
vn 0.0000 1.0000 0.0000
usemtl Material.004
s off
f 17/33/13 18/34/13 20/35/13 19/36/13
f 19/37/14 20/38/14 24/39/14 23/40/14
f 23/40/15 24/39/15 22/41/15 21/42/15
f 21/42/16 22/41/16 18/34/16 17/33/16
f 19/43/17 23/44/17 21/45/17 17/46/17
f 24/47/18 20/48/18 18/34/18 22/41/18
o fur.leg.back.right.top_Cube.009
v -1.094693 1.082333 -1.125701
v -1.094693 2.415992 -1.125701
v -1.094693 1.082333 -2.125701
v -1.094693 2.415992 -2.125701
v -0.094693 1.082333 -1.125701
v -0.094693 2.415992 -1.125701
v -0.094693 1.082333 -2.125701
v -0.094693 2.415992 -2.125701
vt 0.062500 0.187500
vt 0.062500 0.375000
vt -0.000000 0.375000
vt 0.000000 0.187500
vt 0.250000 0.187500
vt 0.250000 0.375000
vt 0.187500 0.375000
vt 0.187500 0.187500
vt 0.125000 0.375000
vt 0.125000 0.187500
vt 0.187500 0.500000
vt 0.125000 0.500000
vt 0.125000 0.375000
vt 0.187500 0.375000
vt 0.125000 0.500000
vt 0.062500 0.500000
vn -1.0000 0.0000 0.0000
vn 0.0000 0.0000 -1.0000
vn 1.0000 0.0000 0.0000
vn 0.0000 0.0000 1.0000
vn 0.0000 -1.0000 0.0000
vn 0.0000 1.0000 0.0000
usemtl Material.003
s off
f 25/49/19 26/50/19 28/51/19 27/52/19
f 27/53/20 28/54/20 32/55/20 31/56/20
f 31/56/21 32/55/21 30/57/21 29/58/21
f 29/58/22 30/57/22 26/50/22 25/49/22
f 27/59/23 31/60/23 29/61/23 25/62/23
f 32/63/24 28/64/24 26/50/24 30/57/24
o fur.leg.front.right.top_Cube.008
v -1.058116 1.082333 1.336828
v -1.058116 2.415992 1.336828
v -1.058116 1.082333 0.336827
v -1.058116 2.415992 0.336827
v -0.058116 1.082333 1.336828
v -0.058116 2.415992 1.336828
v -0.058116 1.082333 0.336827
v -0.058116 2.415992 0.336827
vt 0.062500 0.187500
vt 0.062500 0.375000
vt 0.000000 0.375000
vt 0.000000 0.187500
vt 0.250000 0.187500
vt 0.250000 0.375000
vt 0.187500 0.375000
vt 0.187500 0.187500
vt 0.125000 0.375000
vt 0.125000 0.187500
vt 0.187500 0.500000
vt 0.125000 0.500000
vt 0.125000 0.375000
vt 0.187500 0.375000
vt 0.125000 0.500000
vt 0.062500 0.500000
vn -1.0000 0.0000 0.0000
vn 0.0000 0.0000 -1.0000
vn 1.0000 0.0000 0.0000
vn 0.0000 0.0000 1.0000
vn 0.0000 -1.0000 0.0000
vn 0.0000 1.0000 0.0000
usemtl Material.005
s off
f 33/65/25 34/66/25 36/67/25 35/68/25
f 35/69/26 36/70/26 40/71/26 39/72/26
f 39/72/27 40/71/27 38/73/27 37/74/27
f 37/74/28 38/73/28 34/66/28 33/65/28
f 35/75/29 39/76/29 37/77/29 33/78/29
f 40/79/30 36/80/30 34/66/30 38/73/30
o fur.leg.front.left.top_Cube.007
v 0.060500 1.082333 1.336828
v 0.060500 2.415992 1.336828
v 0.060500 1.082333 0.336827
v 0.060500 2.415992 0.336827
v 1.060500 1.082333 1.336828
v 1.060500 2.415992 1.336828
v 1.060500 1.082333 0.336827
v 1.060500 2.415992 0.336827
vt 0.062500 0.187500
vt 0.062500 0.375000
vt -0.000000 0.375000
vt 0.000000 0.187500
vt 0.250000 0.187500
vt 0.250000 0.375000
vt 0.187500 0.375000
vt 0.187500 0.187500
vt 0.125000 0.375000
vt 0.125000 0.187500
vt 0.187500 0.500000
vt 0.125000 0.500000
vt 0.125000 0.375000
vt 0.187500 0.375000
vt 0.125000 0.500000
vt 0.062500 0.500000
vn -1.0000 0.0000 0.0000
vn 0.0000 0.0000 -1.0000
vn 1.0000 0.0000 0.0000
vn 0.0000 0.0000 1.0000
vn 0.0000 -1.0000 0.0000
vn 0.0000 1.0000 0.0000
usemtl Material.006
s off
f 41/81/31 42/82/31 44/83/31 43/84/31
f 43/85/32 44/86/32 48/87/32 47/88/32
f 47/88/33 48/87/33 46/89/33 45/90/33
f 45/90/34 46/89/34 42/82/34 41/81/34
f 43/91/35 47/92/35 45/93/35 41/94/35
f 48/95/36 44/96/36 42/82/36 46/89/36
o sheep.leg.back.right.low_Cube.005
v -0.997080 0.003356 -1.221765
v -0.997080 2.403356 -1.221765
v -0.997080 0.003356 -2.021765
v -0.997080 2.403356 -2.021765
v -0.197080 0.003356 -1.221765
v -0.197080 2.403356 -1.221765
v -0.197080 0.003356 -2.021765
v -0.197080 2.403356 -2.021765
vt 0.062500 -0.000000
vt 0.062500 0.375000
vt -0.000000 0.375000
vt 0.000000 -0.000000
vt 0.250000 -0.000000
vt 0.250000 0.375000
vt 0.187500 0.375000
vt 0.187500 -0.000000
vt 0.125000 0.375000
vt 0.125000 -0.000000
vt 0.187500 0.500000
vt 0.125000 0.500000
vt 0.125000 0.375000
vt 0.187500 0.375000
vt 0.125000 0.500000
vt 0.062500 0.500000
vn -1.0000 0.0000 0.0000
vn 0.0000 0.0000 -1.0000
vn 1.0000 0.0000 0.0000
vn 0.0000 0.0000 1.0000
vn 0.0000 -1.0000 0.0000
vn 0.0000 1.0000 0.0000
usemtl Material.010
s off
f 49/97/37 50/98/37 52/99/37 51/100/37
f 51/101/38 52/102/38 56/103/38 55/104/38
f 55/104/39 56/103/39 54/105/39 53/106/39
f 53/106/40 54/105/40 50/98/40 49/97/40
f 51/107/41 55/108/41 53/109/41 49/110/41
f 56/111/42 52/112/42 50/98/42 54/105/42
o sheep.leg.back.left.low_Cube.004
v 0.197080 0.003356 -1.221760
v 0.197080 2.403356 -1.221760
v 0.197080 0.003356 -2.021760
v 0.197080 2.403356 -2.021760
v 0.997080 0.003356 -1.221760
v 0.997080 2.403356 -1.221760
v 0.997080 0.003356 -2.021760
v 0.997080 2.403356 -2.021760
vt 0.062500 0.000000
vt 0.062500 0.375000
vt -0.000000 0.375000
vt 0.000000 0.000000
vt 0.250000 0.000000
vt 0.250000 0.375000
vt 0.187500 0.375000
vt 0.187500 0.000000
vt 0.125000 0.375000
vt 0.125000 0.000000
vt 0.187500 0.500000
vt 0.125000 0.500000
vt 0.125000 0.375000
vt 0.187500 0.375000
vt 0.125000 0.500000
vt 0.062500 0.500000
vn -1.0000 0.0000 0.0000
vn 0.0000 -0.0000 -1.0000
vn 1.0000 0.0000 0.0000
vn 0.0000 0.0000 1.0000
vn 0.0000 -1.0000 0.0000
vn 0.0000 1.0000 0.0000
usemtl Material.008
s off
f 57/113/43 58/114/43 60/115/43 59/116/43
f 59/117/44 60/118/44 64/119/44 63/120/44
f 63/120/45 64/119/45 62/121/45 61/122/45
f 61/122/46 62/121/46 58/114/46 57/113/46
f 59/123/47 63/124/47 61/125/47 57/126/47
f 64/127/48 60/128/48 58/114/48 62/121/48
o sheep.leg.front.left.low_Cube.003
v 0.160500 0.003360 1.236827
v 0.160500 2.403360 1.236827
v 0.160500 0.003360 0.436827
v 0.160500 2.403360 0.436827
v 0.960500 0.003360 1.236827
v 0.960500 2.403360 1.236827
v 0.960500 0.003360 0.436827
v 0.960500 2.403360 0.436827
vt 0.062500 -0.000000
vt 0.062500 0.375000
vt 0.000000 0.375000
vt 0.000000 -0.000000
vt 0.250000 -0.000000
vt 0.250000 0.375000
vt 0.187500 0.375000
vt 0.187500 -0.000000
vt 0.125000 0.375000
vt 0.125000 -0.000000
vt 0.187500 0.500000
vt 0.125000 0.500000
vt 0.125000 0.375000
vt 0.187500 0.375000
vt 0.125000 0.500000
vt 0.062500 0.500000
vn -1.0000 -0.0000 0.0000
vn 0.0000 -0.0000 -1.0000
vn 1.0000 0.0000 0.0000
vn 0.0000 0.0000 1.0000
vn 0.0000 -1.0000 0.0000
vn 0.0000 1.0000 0.0000
usemtl Material.007
s off
f 65/129/49 66/130/49 68/131/49 67/132/49
f 67/133/50 68/134/50 72/135/50 71/136/50
f 71/136/51 72/135/51 70/137/51 69/138/51
f 69/138/52 70/137/52 66/130/52 65/129/52
f 67/139/53 71/140/53 69/141/53 65/142/53
f 72/143/54 68/144/54 66/130/54 70/137/54
o fur.body_Cube.002
v -1.135000 1.985715 -2.175206
v -1.135000 1.985714 1.844794
v -1.135000 4.015715 -2.175206
v -1.135000 4.015715 1.844794
v 1.135000 1.985715 -2.175206
v 1.135000 1.985714 1.844794
v 1.135000 4.015715 -2.175206
v 1.135000 4.015715 1.844794
vt 0.531250 0.062500
vt 0.531250 0.562500
vt 0.437500 0.562500
vt 0.437500 0.062500
vt 0.875000 0.062500
vt 0.875000 0.562500
vt 0.750000 0.562500
vt 0.750000 0.062500
vt 0.656250 0.562500
vt 0.656250 0.062500
vt 0.656250 0.750000
vt 0.781250 0.750000
vt 0.781250 0.562500
vt 0.656250 0.562500
vt 0.656250 0.750000
vt 0.531250 0.750000
vn -1.0000 0.0000 0.0000
vn 0.0000 1.0000 0.0000
vn 1.0000 0.0000 0.0000
vn 0.0000 -1.0000 -0.0000
vn 0.0000 0.0000 -1.0000
vn 0.0000 0.0000 1.0000
usemtl Material.001
s off
f 73/145/55 74/146/55 76/147/55 75/148/55
f 75/149/56 76/150/56 80/151/56 79/152/56
f 79/152/57 80/151/57 78/153/57 77/154/57
f 77/154/58 78/153/58 74/146/58 73/145/58
f 75/155/59 79/156/59 77/157/59 73/158/59
f 80/159/60 76/160/60 74/146/60 78/153/60
o sheep.leg.front.right.low_Cube.001
v -0.960500 0.003356 1.236827
v -0.960500 2.403356 1.236827
v -0.960500 0.003356 0.436827
v -0.960500 2.403356 0.436827
v -0.160500 0.003356 1.236827
v -0.160500 2.403356 1.236827
v -0.160500 0.003356 0.436827
v -0.160500 2.403356 0.436827
vt 0.062500 0.000000
vt 0.062500 0.375000
vt -0.000000 0.375000
vt 0.000000 0.000000
vt 0.250000 0.000000
vt 0.250000 0.375000
vt 0.187500 0.375000
vt 0.187500 0.000000
vt 0.125000 0.375000
vt 0.125000 0.000000
vt 0.187500 0.500000
vt 0.125000 0.500000
vt 0.125000 0.375000
vt 0.187500 0.375000
vt 0.125000 0.500000
vt 0.062500 0.500000
vn -1.0000 -0.0000 0.0000
vn 0.0000 -0.0000 -1.0000
vn 1.0000 0.0000 0.0000
vn 0.0000 0.0000 1.0000
vn 0.0000 -1.0000 0.0000
vn 0.0000 1.0000 0.0000
usemtl Material.009
s off
f 81/161/61 82/162/61 84/163/61 83/164/61
f 83/165/62 84/166/62 88/167/62 87/168/62
f 87/168/63 88/167/63 86/169/63 85/170/63
f 85/170/64 86/169/64 82/162/64 81/161/64
f 83/171/65 87/172/65 85/173/65 81/174/65
f 88/175/66 84/176/66 82/162/66 86/169/66
o sheep.head_Cube
v -0.600000 3.192500 2.799470
v -0.600000 4.392500 2.799470
v -0.600000 3.192500 1.199470
v -0.600000 4.392500 1.199470
v 0.600000 3.192500 2.799470
v 0.600000 4.392500 2.799470
v 0.600000 3.192500 1.199470
v 0.600000 4.392500 1.199470
vt 0.125000 0.562500
vt 0.125000 0.750000
vt -0.000000 0.750000
vt 0.000000 0.562500
vt 0.437500 0.562500
vt 0.437500 0.750000
vt 0.343750 0.750000
vt 0.343750 0.562500
vt 0.218750 0.750000
vt 0.218750 0.562500
vt 0.312500 1.000000
vt 0.218750 1.000000
vt 0.218750 0.750000
vt 0.312500 0.750000
vt 0.218750 1.000000
vt 0.125000 1.000000
vn -1.0000 0.0000 0.0000
vn 0.0000 0.0000 -1.0000
vn 1.0000 0.0000 0.0000
vn 0.0000 0.0000 1.0000
vn 0.0000 -1.0000 0.0000
vn 0.0000 1.0000 0.0000
usemtl Material
s off
f 89/177/67 90/178/67 92/179/67 91/180/67
f 91/181/68 92/182/68 96/183/68 95/184/68
f 95/184/69 96/183/69 94/185/69 93/186/69
f 93/186/70 94/185/70 90/178/70 89/177/70
f 91/187/71 95/188/71 93/189/71 89/190/71
f 96/191/72 92/192/72 90/178/72 94/185/72
