# Blender v2.93.2 OBJ File: 'cow+mooshroom.blend'
# www.blender.org
mtllib cow+mooshroom.mtl
o cow_ear.right_Cube.008
v -0.999950 4.376350 2.599532
v -0.999950 4.976350 2.599532
v -0.999950 4.376350 2.399532
v -0.999950 4.976350 2.399532
v -0.799950 4.376350 2.599532
v -0.799950 4.976350 2.599532
v -0.799950 4.376350 2.399532
v -0.799950 4.976350 2.399532
vt 0.359375 0.875000
vt 0.359375 0.968750
vt 0.343750 0.968750
vt 0.343750 0.875000
vt 0.406250 0.875000
vt 0.406250 0.968750
vt 0.390625 0.968750
vt 0.390625 0.875000
vt 0.375000 0.968750
vt 0.375000 0.875000
vt 0.390625 0.968750
vt 0.390625 1.000000
vt 0.375000 1.000000
vt 0.375000 0.968750
vt 0.375000 1.000000
vt 0.359375 1.000000
vn -1.0000 0.0000 0.0000
vn 0.0000 0.0000 -1.0000
vn 1.0000 0.0000 0.0000
vn 0.0000 0.0000 1.0000
vn 0.0000 -1.0000 0.0000
vn 0.0000 1.0000 0.0000
usemtl Material
s off
f 1/1/1 2/2/1 4/3/1 3/4/1
f 3/5/2 4/6/2 8/7/2 7/8/2
f 7/8/3 8/7/3 6/9/3 5/10/3
f 5/10/4 6/9/4 2/2/4 1/1/4
f 3/11/5 7/12/5 5/13/5 1/14/5
f 8/15/6 4/16/6 2/2/6 6/9/6
o cow_leg.front.right_Cube.007
v -1.199200 0.006813 1.798554
v -1.199200 2.406812 1.798555
v -1.199200 0.006813 0.998555
v -1.199200 2.406812 0.998555
v -0.399200 0.006813 1.798554
v -0.399200 2.406812 1.798555
v -0.399200 0.006813 0.998555
v -0.399200 2.406812 0.998555
vt 0.062500 0.000000
vt 0.062500 0.375000
vt 0.000000 0.375000
vt 0.000000 0.000000
vt 0.250000 -0.000000
vt 0.250000 0.375000
vt 0.187500 0.375000
vt 0.187500 -0.000000
vt 0.125000 0.375000
vt 0.125000 0.000000
vt 0.187500 0.500000
vt 0.125000 0.500000
vt 0.125000 0.375000
vt 0.187500 0.375000
vt 0.125000 0.500000
vt 0.062500 0.500000
vn -1.0000 0.0000 0.0000
vn 0.0000 -0.0000 -1.0000
vn 1.0000 -0.0000 0.0000
vn 0.0000 -0.0000 1.0000
vn 0.0000 -1.0000 0.0000
vn 0.0000 1.0000 0.0000
usemtl Material
s off
f 9/17/7 10/18/7 12/19/7 11/20/7
f 11/21/8 12/22/8 16/23/8 15/24/8
f 15/24/9 16/23/9 14/25/9 13/26/9
f 13/26/10 14/25/10 10/18/10 9/17/10
f 11/27/11 15/28/11 13/29/11 9/30/11
f 16/31/12 12/32/12 10/18/12 14/25/12
o cow_leg.front.left_Cube.006
v 0.399200 0.006813 1.798554
v 0.399200 2.406812 1.798555
v 0.399200 0.006813 0.998555
v 0.399200 2.406812 0.998555
v 1.199200 0.006813 1.798554
v 1.199200 2.406812 1.798555
v 1.199200 0.006813 0.998555
v 1.199200 2.406812 0.998555
vt 0.062500 0.000000
vt 0.062500 0.375000
vt 0.000000 0.375000
vt 0.000000 0.000000
vt 0.250000 -0.000000
vt 0.250000 0.375000
vt 0.187500 0.375000
vt 0.187500 -0.000000
vt 0.125000 0.375000
vt 0.125000 0.000000
vt 0.187500 0.500000
vt 0.125000 0.500000
vt 0.125000 0.375000
vt 0.187500 0.375000
vt 0.125000 0.500000
vt 0.062500 0.500000
vn -1.0000 -0.0000 0.0000
vn 0.0000 -0.0000 -1.0000
vn 1.0000 0.0000 0.0000
vn 0.0000 -0.0000 1.0000
vn 0.0000 -1.0000 0.0000
vn 0.0000 1.0000 0.0000
usemtl Material
s off
f 17/33/13 18/34/13 20/35/13 19/36/13
f 19/37/14 20/38/14 24/39/14 23/40/14
f 23/40/15 24/39/15 22/41/15 21/42/15
f 21/42/16 22/41/16 18/34/16 17/33/16
f 19/43/17 23/44/17 21/45/17 17/46/17
f 24/47/18 20/48/18 18/34/18 22/41/18
o cow_leg.back.left_Cube.005
v 0.375440 0.006813 -0.801162
v 0.375440 2.406812 -0.801162
v 0.375440 0.006813 -1.601162
v 0.375440 2.406812 -1.601162
v 1.175440 0.006813 -0.801162
v 1.175440 2.406812 -0.801162
v 1.175440 0.006813 -1.601162
v 1.175440 2.406812 -1.601162
vt 0.062500 0.000000
vt 0.062500 0.375000
vt 0.000000 0.375000
vt 0.000000 0.000000
vt 0.250000 -0.000000
vt 0.250000 0.375000
vt 0.187500 0.375000
vt 0.187500 -0.000000
vt 0.125000 0.375000
vt 0.125000 0.000000
vt 0.187500 0.500000
vt 0.125000 0.500000
vt 0.125000 0.375000
vt 0.187500 0.375000
vt 0.125000 0.500000
vt 0.062500 0.500000
vn -1.0000 0.0000 0.0000
vn 0.0000 0.0000 -1.0000
vn 1.0000 -0.0000 0.0000
vn 0.0000 0.0000 1.0000
vn 0.0000 -1.0000 0.0000
vn 0.0000 1.0000 0.0000
usemtl Material
s off
f 25/49/19 26/50/19 28/51/19 27/52/19
f 27/53/20 28/54/20 32/55/20 31/56/20
f 31/56/21 32/55/21 30/57/21 29/58/21
f 29/58/22 30/57/22 26/50/22 25/49/22
f 27/59/23 31/60/23 29/61/23 25/62/23
f 32/63/24 28/64/24 26/50/24 30/57/24
o cow_milk_Cube.004
v -0.392500 2.391259 -0.600744
v -0.392500 2.391260 -1.800743
v -0.392500 2.211260 -0.600744
v -0.392500 2.211260 -1.800743
v 0.387500 2.391259 -0.600744
v 0.387500 2.391260 -1.800743
v 0.387500 2.211260 -0.600744
v 0.387500 2.211260 -1.800743
vt 0.828125 0.968750
vt 0.828125 0.781250
vt 0.812500 0.781250
vt 0.812500 0.968750
vt 0.828125 0.968750
vt 0.828125 0.781250
vt 0.890625 0.781250
vt 0.890625 0.968750
vt 0.906250 0.968750
vt 0.906250 0.781250
vt 0.890625 0.781250
vt 0.890625 0.968750
vt 0.968750 0.968750
vt 0.968750 0.781250
vt 0.906250 0.781250
vt 0.906250 0.968750
vt 0.890625 1.000000
vt 0.828125 1.000000
vt 0.890625 0.968750
vt 0.953125 0.968750
vt 0.953125 1.000000
vt 0.890625 1.000000
vn -1.0000 0.0000 0.0000
vn 0.0000 -1.0000 0.0000
vn 1.0000 0.0000 0.0000
vn 0.0000 1.0000 0.0000
vn 0.0000 0.0000 1.0000
vn 0.0000 0.0000 -1.0000
usemtl Material
s off
f 33/65/25 34/66/25 36/67/25 35/68/25
f 35/69/26 36/70/26 40/71/26 39/72/26
f 39/73/27 40/74/27 38/75/27 37/76/27
f 37/77/28 38/78/28 34/79/28 33/80/28
f 35/69/29 39/72/29 37/81/29 33/82/29
f 40/83/30 36/84/30 34/85/30 38/86/30
o cow_body_Cube.003
v -1.200000 2.379101 -1.800000
v -1.200000 2.379101 1.799999
v -1.200000 4.379100 -1.800000
v -1.200000 4.379100 1.799999
v 1.200000 2.379101 -1.800000
v 1.200000 2.379101 1.799999
v 1.200000 4.379100 -1.800000
v 1.200000 4.379100 1.799999
vt 0.437500 -0.000000
vt 0.437500 0.562500
vt 0.281250 0.562500
vt 0.281250 0.000000
vt 0.968750 -0.000000
vt 0.968750 0.562500
vt 0.781250 0.562500
vt 0.781250 -0.000000
vt 0.625000 0.562500
vt 0.625000 0.000000
vt 0.625000 0.875000
vt 0.812500 0.875000
vt 0.812500 0.562500
vt 0.625000 0.562500
vt 0.625000 0.875000
vt 0.437500 0.875000
vn -1.0000 0.0000 0.0000
vn 0.0000 1.0000 0.0000
vn 1.0000 0.0000 0.0000
vn 0.0000 -1.0000 -0.0000
vn 0.0000 0.0000 -1.0000
vn 0.0000 0.0000 1.0000
usemtl Material
s off
f 41/87/31 42/88/31 44/89/31 43/90/31
f 43/91/32 44/92/32 48/93/32 47/94/32
f 47/94/33 48/93/33 46/95/33 45/96/33
f 45/96/34 46/95/34 42/88/34 41/87/34
f 43/97/35 47/98/35 45/99/35 41/100/35
f 48/101/36 44/102/36 42/88/36 46/95/36
o cow_leg.back.right_Cube.002
v -1.175440 0.006813 -0.801162
v -1.175440 2.406812 -0.801162
v -1.175440 0.006813 -1.601162
v -1.175440 2.406812 -1.601162
v -0.375440 0.006813 -0.801162
v -0.375440 2.406812 -0.801162
v -0.375440 0.006813 -1.601162
v -0.375440 2.406812 -1.601162
vt 0.062500 0.000000
vt 0.062500 0.375000
vt 0.000000 0.375000
vt 0.000000 0.000000
vt 0.250000 -0.000000
vt 0.250000 0.375000
vt 0.187500 0.375000
vt 0.187500 -0.000000
vt 0.125000 0.375000
vt 0.125000 0.000000
vt 0.187500 0.500000
vt 0.125000 0.500000
vt 0.125000 0.375000
vt 0.187500 0.375000
vt 0.125000 0.500000
vt 0.062500 0.500000
vn -1.0000 0.0000 0.0000
vn 0.0000 -0.0000 -1.0000
vn 1.0000 -0.0000 0.0000
vn 0.0000 0.0000 1.0000
vn 0.0000 -1.0000 0.0000
vn 0.0000 1.0000 0.0000
usemtl Material
s off
f 49/103/37 50/104/37 52/105/37 51/106/37
f 51/107/38 52/108/38 56/109/38 55/110/38
f 55/110/39 56/109/39 54/111/39 53/112/39
f 53/112/40 54/111/40 50/104/40 49/103/40
f 51/113/41 55/114/41 53/115/41 49/116/41
f 56/117/42 52/118/42 50/104/42 54/111/42
o cow_ear.left_Cube.001
v 0.799950 4.376350 2.599531
v 0.799950 4.976350 2.599531
v 0.799950 4.376350 2.399532
v 0.799950 4.976350 2.399532
v 0.999950 4.376350 2.599531
v 0.999950 4.976350 2.599531
v 0.999950 4.376350 2.399532
v 0.999950 4.976350 2.399532
vt 0.359375 0.875000
vt 0.359375 0.968750
vt 0.343750 0.968750
vt 0.343750 0.875000
vt 0.406250 0.875000
vt 0.406250 0.968750
vt 0.390625 0.968750
vt 0.390625 0.875000
vt 0.375000 0.968750
vt 0.375000 0.875000
vt 0.390625 0.968750
vt 0.390625 1.000000
vt 0.375000 1.000000
vt 0.375000 0.968750
vt 0.375000 1.000000
vt 0.359375 1.000000
vn -1.0000 0.0000 0.0000
vn 0.0000 0.0000 -1.0000
vn 1.0000 0.0000 0.0000
vn 0.0000 0.0000 1.0000
vn 0.0000 -1.0000 0.0000
vn 0.0000 1.0000 0.0000
usemtl Material
s off
f 57/119/43 58/120/43 60/121/43 59/122/43
f 59/123/44 60/124/44 64/125/44 63/126/44
f 63/126/45 64/125/45 62/127/45 61/128/45
f 61/128/46 62/127/46 58/120/46 57/119/46
f 59/129/47 63/130/47 61/131/47 57/132/47
f 64/133/48 60/134/48 58/120/48 62/127/48
o cow_head_Cube
v -0.800000 3.177281 2.999374
v -0.800000 4.777281 2.999374
v -0.800000 3.177281 1.799374
v -0.800000 4.777281 1.799374
v 0.800000 3.177281 2.999374
v 0.800000 4.777281 2.999374
v 0.800000 3.177281 1.799374
v 0.800000 4.777281 1.799374
vt 0.093750 0.562500
vt 0.093750 0.812500
vt -0.000000 0.812500
vt -0.000000 0.562500
vt 0.437500 0.562500
vt 0.437500 0.812500
vt 0.312500 0.812500
vt 0.312500 0.562500
vt 0.218750 0.812500
vt 0.218750 0.562500
vt 0.343750 1.000000
vt 0.218750 1.000000
vt 0.218750 0.812500
vt 0.343750 0.812500
vt 0.218750 1.000000
vt 0.093750 1.000000
vn -1.0000 -0.0000 0.0000
vn 0.0000 -0.0000 -1.0000
vn 1.0000 0.0000 0.0000
vn 0.0000 0.0000 1.0000
vn 0.0000 -1.0000 0.0000
vn 0.0000 1.0000 0.0000
usemtl Material
s off
f 65/135/49 66/136/49 68/137/49 67/138/49
f 67/139/50 68/140/50 72/141/50 71/142/50
f 71/142/51 72/141/51 70/143/51 69/144/51
f 69/144/52 70/143/52 66/136/52 65/135/52
f 67/145/53 71/146/53 69/147/53 65/148/53
f 72/149/54 68/150/54 66/136/54 70/143/54
