# Blender v2.93.2 OBJ File: 'spider.blend'
# www.blender.org
mtllib spider.mtl
o spi_leg.right.back.front_Cube.026
v -0.694019 1.849984 0.074442
v -0.909613 2.177645 -0.004028
v -0.830827 1.849984 0.450319
v -1.046421 2.177645 0.371849
v -3.157222 0.014539 -0.822091
v -3.372816 0.342200 -0.900561
v -3.294030 0.014539 -0.446214
v -3.509624 0.342200 -0.524684
vt 0.312500 0.875000
vt 0.312500 0.937500
vt 0.281250 0.937500
vt 0.281250 0.875000
vt 0.843750 0.875000
vt 0.843750 0.937500
vt 0.593750 0.937500
vt 0.593750 0.875000
vt 0.562500 0.937500
vt 0.562500 0.875000
vt 0.812500 1.000000
vt 0.562500 1.000000
vt 0.562500 0.937500
vt 0.812500 0.937500
vt 0.562500 1.000000
vt 0.312500 1.000000
vn 0.7698 0.5736 0.2802
vn -0.3420 -0.0000 0.9397
vn -0.7698 -0.5736 -0.2802
vn 0.3420 0.0000 -0.9397
vn 0.5390 -0.8192 0.1962
vn -0.5390 0.8192 -0.1962
usemtl Material
s off
f 1/1/1 2/2/1 4/3/1 3/4/1
f 3/5/2 4/6/2 8/7/2 7/8/2
f 7/8/3 8/7/3 6/9/3 5/10/3
f 5/10/4 6/9/4 2/2/4 1/1/4
f 3/11/5 7/12/5 5/13/5 1/14/5
f 8/15/6 4/16/6 2/2/6 6/9/6
o spi_leg.right.front.front_Cube.025
v -0.847094 1.849984 0.185745
v -0.961809 2.177645 0.384438
v -0.500684 1.849984 0.385745
v -0.615399 2.177645 0.584438
v -2.157737 0.014540 2.455846
v -2.272453 0.342200 2.654539
v -1.811327 0.014540 2.655846
v -1.926043 0.342200 2.854538
vt 0.312500 0.875000
vt 0.312500 0.937500
vt 0.281250 0.937500
vt 0.281250 0.875000
vt 0.843750 0.875000
vt 0.843750 0.937500
vt 0.593750 0.937500
vt 0.593750 0.875000
vt 0.562500 0.937500
vt 0.562500 0.875000
vt 0.812500 1.000000
vt 0.562500 1.000000
vt 0.562500 0.937500
vt 0.812500 0.937500
vt 0.562500 1.000000
vt 0.312500 1.000000
vn 0.4096 0.5736 -0.7094
vn 0.8660 -0.0000 0.5000
vn -0.4096 -0.5736 0.7094
vn -0.8660 0.0000 -0.5000
vn 0.2868 -0.8192 -0.4967
vn -0.2868 0.8192 0.4967
usemtl Material
s off
f 9/17/7 10/18/7 12/19/7 11/20/7
f 11/21/8 12/22/8 16/23/8 15/24/8
f 15/24/9 16/23/9 14/25/9 13/26/9
f 13/26/10 14/25/10 10/18/10 9/17/10
f 11/27/11 15/28/11 13/29/11 9/30/11
f 16/31/12 12/32/12 10/18/12 14/25/12
o spi_leg.right.back.back_Cube.024
v -0.525831 1.849984 0.312141
v -0.640546 2.177645 0.113448
v -0.872241 1.849984 0.512141
v -0.986956 2.177645 0.313448
v -1.836473 0.014540 -1.957960
v -1.951189 0.342200 -2.156653
v -2.182884 0.014540 -1.757960
v -2.297599 0.342200 -1.956653
vt 0.312500 0.875000
vt 0.312500 0.937500
vt 0.281250 0.937500
vt 0.281250 0.875000
vt 0.843750 0.875000
vt 0.843750 0.937500
vt 0.593750 0.937500
vt 0.593750 0.875000
vt 0.562500 0.937500
vt 0.562500 0.875000
vt 0.812500 1.000000
vt 0.562500 1.000000
vt 0.562500 0.937500
vt 0.812500 0.937500
vt 0.562500 1.000000
vt 0.312500 1.000000
vn 0.4096 0.5736 0.7094
vn -0.8660 0.0000 0.5000
vn -0.4096 -0.5736 -0.7094
vn 0.8660 -0.0000 -0.5000
vn 0.2868 -0.8192 0.4967
vn -0.2868 0.8192 -0.4967
usemtl Material
s off
f 17/33/13 18/34/13 20/35/13 19/36/13
f 19/37/14 20/38/14 24/39/14 23/40/14
f 23/40/15 24/39/15 22/41/15 21/42/15
f 21/42/16 22/41/16 18/34/16 17/33/16
f 19/43/17 23/44/17 21/45/17 17/46/17
f 24/47/18 20/48/18 18/34/18 22/41/18
o spi_leg.right.front.back_Cube.023
v -0.829809 1.849984 0.291383
v -1.045403 2.177645 0.369853
v -0.693001 1.849984 0.667260
v -0.908596 2.177645 0.745730
v -3.293013 0.014540 1.187915
v -3.508608 0.342200 1.266385
v -3.156205 0.014540 1.563792
v -3.371799 0.342200 1.642262
vt 0.312500 0.875000
vt 0.312500 0.937500
vt 0.281250 0.937500
vt 0.281250 0.875000
vt 0.843750 0.875000
vt 0.843750 0.937500
vt 0.593750 0.937500
vt 0.593750 0.875000
vt 0.562500 0.937500
vt 0.562500 0.875000
vt 0.812500 1.000000
vt 0.562500 1.000000
vt 0.562500 0.937500
vt 0.812500 0.937500
vt 0.562500 1.000000
vt 0.312500 1.000000
vn 0.7698 0.5736 -0.2802
vn 0.3420 -0.0000 0.9397
vn -0.7698 -0.5736 0.2802
vn -0.3420 0.0000 -0.9397
vn 0.5390 -0.8192 -0.1962
vn -0.5390 0.8192 0.1962
usemtl Material
s off
f 25/49/19 26/50/19 28/51/19 27/52/19
f 27/53/20 28/54/20 32/55/20 31/56/20
f 31/56/21 32/55/21 30/57/21 29/58/21
f 29/58/22 30/57/22 26/50/22 25/49/22
f 27/59/23 31/60/23 29/61/23 25/62/23
f 32/63/24 28/64/24 26/50/24 30/57/24
o spi_leg.left.back.front_Cube.018
v 0.872392 1.849984 0.428411
v 1.087986 2.177645 0.349941
v 0.735584 1.849984 0.052534
v 0.951178 2.177645 -0.025936
v 3.335595 0.014540 -0.468122
v 3.551190 0.342201 -0.546592
v 3.198787 0.014540 -0.843999
v 3.414382 0.342201 -0.922469
vt 0.312500 0.875000
vt 0.312500 0.937500
vt 0.281250 0.937500
vt 0.281250 0.875000
vt 0.843750 0.875000
vt 0.843750 0.937500
vt 0.593750 0.937500
vt 0.593750 0.875000
vt 0.562500 0.937500
vt 0.562500 0.875000
vt 0.812500 1.000000
vt 0.562500 1.000000
vt 0.562500 0.937500
vt 0.812500 0.937500
vt 0.562500 1.000000
vt 0.312500 1.000000
vn -0.7698 0.5736 0.2802
vn -0.3420 0.0000 -0.9397
vn 0.7698 -0.5736 -0.2802
vn 0.3420 -0.0000 0.9397
vn -0.5390 -0.8192 0.1962
vn 0.5390 0.8192 -0.1962
usemtl Material
s off
f 33/65/25 34/66/25 36/67/25 35/68/25
f 35/69/26 36/70/26 40/71/26 39/72/26
f 39/72/27 40/71/27 38/73/27 37/74/27
f 37/74/28 38/73/28 34/66/28 33/65/28
f 35/75/29 39/76/29 37/77/29 33/78/29
f 40/79/30 36/80/30 34/66/30 38/73/30
o spi_leg.left.front.front_Cube.017
v 0.568413 1.849984 0.407653
v 0.683128 2.177645 0.606346
v 0.914823 1.849984 0.207653
v 1.029539 2.177645 0.406345
v 1.879057 0.014539 2.677754
v 1.993772 0.342200 2.876447
v 2.225467 0.014539 2.477754
v 2.340182 0.342200 2.676447
vt 0.312500 0.875000
vt 0.312500 0.937500
vt 0.281250 0.937500
vt 0.281250 0.875000
vt 0.843750 0.875000
vt 0.843750 0.937500
vt 0.593750 0.937500
vt 0.593750 0.875000
vt 0.562500 0.937500
vt 0.562500 0.875000
vt 0.812500 1.000000
vt 0.562500 1.000000
vt 0.562500 0.937500
vt 0.812500 0.937500
vt 0.562500 1.000000
vt 0.312500 1.000000
vn -0.4096 0.5736 -0.7094
vn 0.8660 0.0000 -0.5000
vn 0.4096 -0.5736 0.7094
vn -0.8660 -0.0000 0.5000
vn -0.2868 -0.8192 -0.4967
vn 0.2868 0.8192 0.4967
usemtl Material
s off
f 41/81/31 42/82/31 44/83/31 43/84/31
f 43/85/32 44/86/32 48/87/32 47/88/32
f 47/88/33 48/87/33 46/89/33 45/90/33
f 45/90/34 46/89/34 42/82/34 41/81/34
f 43/91/35 47/92/35 45/93/35 41/94/35
f 48/95/36 44/96/36 42/82/36 46/89/36
o spi_leg.left.back.back_Cube.016
v 0.889677 1.849984 0.534049
v 1.004392 2.177645 0.335356
v 0.543267 1.849984 0.334049
v 0.657982 2.177645 0.135356
v 2.200320 0.014540 -1.736052
v 2.315035 0.342201 -1.934744
v 1.853910 0.014540 -1.936052
v 1.968625 0.342201 -2.134745
vt 0.312500 0.875000
vt 0.312500 0.937500
vt 0.281250 0.937500
vt 0.281250 0.875000
vt 0.843750 0.875000
vt 0.843750 0.937500
vt 0.593750 0.937500
vt 0.593750 0.875000
vt 0.562500 0.937500
vt 0.562500 0.875000
vt 0.812500 1.000000
vt 0.562500 1.000000
vt 0.562500 0.937500
vt 0.812500 0.937500
vt 0.562500 1.000000
vt 0.312500 1.000000
vn -0.4096 0.5736 0.7094
vn -0.8660 -0.0000 -0.5000
vn 0.4096 -0.5736 -0.7094
vn 0.8660 -0.0000 0.5000
vn -0.2868 -0.8192 0.4967
vn 0.2868 0.8192 -0.4967
usemtl Material
s off
f 49/97/37 50/98/37 52/99/37 51/100/37
f 51/101/38 52/102/38 56/103/38 55/104/38
f 55/104/39 56/103/39 54/105/39 53/106/39
f 53/106/40 54/105/40 50/98/40 49/97/40
f 51/107/41 55/108/41 53/109/41 49/110/41
f 56/111/42 52/112/42 50/98/42 54/105/42
o spi_leg.left.front.back_Cube.015
v 0.736601 1.849984 0.645352
v 0.952195 2.177645 0.723822
v 0.873409 1.849984 0.269475
v 1.089004 2.177645 0.347945
v 3.199805 0.014539 1.541885
v 3.415400 0.342200 1.620355
v 3.336613 0.014539 1.166008
v 3.552207 0.342200 1.244478
vt 0.312500 0.875000
vt 0.312500 0.937500
vt 0.281250 0.937500
vt 0.281250 0.875000
vt 0.843750 0.875000
vt 0.843750 0.937500
vt 0.593750 0.937500
vt 0.593750 0.875000
vt 0.562500 0.937500
vt 0.562500 0.875000
vt 0.812500 1.000000
vt 0.562500 1.000000
vt 0.562500 0.937500
vt 0.812500 0.937500
vt 0.562500 1.000000
vt 0.312500 1.000000
vn -0.7698 0.5736 -0.2802
vn 0.3420 -0.0000 -0.9397
vn 0.7698 -0.5736 0.2802
vn -0.3420 -0.0000 0.9397
vn -0.5390 -0.8192 -0.1962
vn 0.5390 0.8192 0.1962
usemtl Material
s off
f 57/113/43 58/114/43 60/115/43 59/116/43
f 59/117/44 60/118/44 64/119/44 63/120/44
f 63/120/45 64/119/45 62/121/45 61/122/45
f 61/122/46 62/121/46 58/114/46 57/113/46
f 59/123/47 63/124/47 61/125/47 57/126/47
f 64/127/48 60/128/48 58/114/48 62/121/48
o spi_body.head_Cube.003
v -0.800000 1.207296 2.533264
v -0.800000 2.807297 2.533264
v -0.800000 1.207296 0.933264
v -0.800000 2.807297 0.933264
v 0.800000 1.207296 2.533264
v 0.800000 2.807297 2.533264
v 0.800000 1.207296 0.933264
v 0.800000 2.807297 0.933264
vt 0.625000 0.375000
vt 0.625000 0.625000
vt 0.500000 0.625000
vt 0.500000 0.375000
vt 1.000000 0.375000
vt 1.000000 0.625000
vt 0.875000 0.625000
vt 0.875000 0.375000
vt 0.750000 0.625000
vt 0.750000 0.375000
vt 0.875000 0.875000
vt 0.750000 0.875000
vt 0.750000 0.625000
vt 0.875000 0.625000
vt 0.750000 0.875000
vt 0.625000 0.875000
vn -1.0000 0.0000 0.0000
vn 0.0000 -0.0000 -1.0000
vn 1.0000 0.0000 0.0000
vn 0.0000 0.0000 1.0000
vn 0.0000 -1.0000 0.0000
vn 0.0000 1.0000 0.0000
usemtl Material
s off
f 65/129/49 66/130/49 68/131/49 67/132/49
f 67/133/50 68/134/50 72/135/50 71/136/50
f 71/136/51 72/135/51 70/137/51 69/138/51
f 69/138/52 70/137/52 66/130/52 65/129/52
f 67/139/53 71/140/53 69/141/53 65/142/53
f 72/143/54 68/144/54 66/130/54 70/137/54
o spi_body.back_Cube.001
v -1.000000 1.203830 -0.256053
v -1.000000 2.803829 -0.256053
v -1.000000 1.203830 -2.656053
v -1.000000 2.803829 -2.656053
v 1.000000 1.203830 -0.256053
v 1.000000 2.803829 -0.256053
v 1.000000 1.203830 -2.656053
v 1.000000 2.803829 -2.656053
vt 0.187500 0.000000
vt 0.187500 0.250000
vt 0.000000 0.250000
vt 0.000000 0.000000
vt 0.687500 0.000000
vt 0.687500 0.250000
vt 0.531250 0.250000
vt 0.531250 0.000000
vt 0.343750 0.250000
vt 0.343750 -0.000000
vt 0.343750 0.250000
vt 0.500000 0.250000
vt 0.500000 0.625000
vt 0.343750 0.625000
vt 0.343750 0.625000
vt 0.187500 0.625000
vn -1.0000 0.0000 0.0000
vn 0.0000 0.0000 -1.0000
vn 1.0000 0.0000 0.0000
vn 0.0000 -0.0000 1.0000
vn 0.0000 -1.0000 0.0000
vn 0.0000 1.0000 0.0000
usemtl Material
s off
f 73/145/55 74/146/55 76/147/55 75/148/55
f 75/149/56 76/150/56 80/151/56 79/152/56
f 79/152/57 80/151/57 78/153/57 77/154/57
f 77/154/58 78/153/58 74/146/58 73/145/58
f 75/155/59 79/156/59 77/157/59 73/158/59
f 80/159/60 76/160/60 74/146/60 78/153/60
o spi_body.middle_Cube
v -0.600000 1.407425 0.942394
v -0.600000 2.607425 0.942394
v -0.600000 1.407425 -0.257606
v -0.600000 2.607425 -0.257606
v 0.600000 1.407425 0.942394
v 0.600000 2.607425 0.942394
v 0.600000 1.407425 -0.257606
v 0.600000 2.607425 -0.257606
vt 0.093750 0.625000
vt 0.093750 0.812500
vt 0.000000 0.812500
vt 0.000000 0.625000
vt 0.375000 0.625000
vt 0.375000 0.812500
vt 0.281250 0.812500
vt 0.281250 0.625000
vt 0.187500 0.812500
vt 0.187500 0.625000
vt 0.281250 1.000000
vt 0.187500 1.000000
vt 0.187500 0.812500
vt 0.281250 0.812500
vt 0.187500 1.000000
vt 0.093750 1.000000
vn -1.0000 0.0000 0.0000
vn 0.0000 0.0000 -1.0000
vn 1.0000 0.0000 0.0000
vn 0.0000 0.0000 1.0000
vn 0.0000 -1.0000 -0.0000
vn 0.0000 1.0000 0.0000
usemtl Material
s off
f 81/161/61 82/162/61 84/163/61 83/164/61
f 83/165/62 84/166/62 88/167/62 87/168/62
f 87/168/63 88/167/63 86/169/63 85/170/63
f 85/170/64 86/169/64 82/162/64 81/161/64
f 83/171/65 87/172/65 85/173/65 81/174/65
f 88/175/66 84/176/66 82/162/66 86/169/66
