# Blender v2.93.2 OBJ File: 'enderman.blend'
# www.blender.org
mtllib enderman.mtl
o 45flower_front_Cube.022
v -0.334193 6.432185 -0.036577
v -0.334193 6.761914 -0.036577
v -0.101039 6.432185 0.196577
v -0.101039 6.761914 0.196577
v -0.334193 6.432185 -0.036577
v -0.334193 6.761914 -0.036577
v -0.101039 6.432185 0.196577
v -0.101039 6.761914 0.196577
vt -0.000000 0.000000
vt -0.000000 1.000000
vt 1.000000 1.000000
vt 1.000000 -0.000000
vt -0.000000 0.000000
vt 1.000000 -0.000000
vt 1.000000 1.000000
vt -0.000000 1.000000
vn 0.7071 0.0000 -0.7071
vn -0.7071 0.0000 0.7071
usemtl Material
s off
f 1/1/1 2/2/1 4/3/1 3/4/1
f 5/5/2 7/6/2 8/7/2 6/8/2
o 45flower_side_Cube.021
v -0.101039 6.432185 -0.036577
v -0.101039 6.761914 -0.036577
v -0.334193 6.432185 0.196577
v -0.334193 6.761914 0.196577
v -0.101039 6.432185 -0.036577
v -0.101039 6.761914 -0.036577
v -0.334193 6.432185 0.196577
v -0.334193 6.761914 0.196577
vt 1.000000 0.000000
vt 1.000000 1.000000
vt 0.000000 1.000000
vt 0.000000 0.000000
vt 1.000000 0.000000
vt 0.000000 0.000000
vt 0.000000 1.000000
vt 1.000000 1.000000
vn 0.7071 0.0000 0.7071
vn -0.7071 0.0000 -0.7071
usemtl Material
s off
f 9/9/3 10/10/3 12/11/3 11/12/3
f 13/13/4 15/14/4 16/15/4 14/16/4
o 90flower_side_Cube.020
v -0.217616 6.432185 -0.084865
v -0.217616 6.761914 -0.084865
v -0.217616 6.432185 0.244865
v -0.217616 6.761914 0.244865
v -0.217616 6.432185 -0.084865
v -0.217616 6.761914 -0.084865
v -0.217616 6.432185 0.244865
v -0.217616 6.761914 0.244865
vt 1.000000 0.000000
vt 1.000000 1.000000
vt 0.000000 1.000000
vt 0.000000 0.000000
vt 1.000000 0.000000
vt 0.000000 0.000000
vt 0.000000 1.000000
vt 1.000000 1.000000
vn 1.0000 0.0000 -0.0000
vn -1.0000 0.0000 0.0000
usemtl Material
s off
f 17/17/5 18/18/5 20/19/5 19/20/5
f 21/21/6 23/22/6 24/23/6 22/24/6
o 90flower_front_Cube.019
v -0.382481 6.432185 0.080000
v -0.382481 6.761914 0.080000
v -0.052752 6.432185 0.080000
v -0.052752 6.761914 0.080000
v -0.382481 6.432185 0.080000
v -0.382481 6.761914 0.080000
v -0.052752 6.432185 0.080000
v -0.052752 6.761914 0.080000
vt -0.000000 0.000000
vt -0.000000 1.000000
vt 1.000000 1.000000
vt 1.000000 -0.000000
vt -0.000000 0.000000
vt 1.000000 -0.000000
vt 1.000000 1.000000
vt -0.000000 1.000000
vn 0.0000 0.0000 -1.0000
vn 0.0000 0.0000 1.0000
usemtl Material
s off
f 25/25/7 26/26/7 28/27/7 27/28/7
f 29/29/8 31/30/8 32/31/8 30/32/8
o Cube_back_Cube.018
v -0.382481 6.432185 -0.084865
v -0.382481 6.761914 -0.084865
v -0.052752 6.432185 -0.084865
v -0.052752 6.761914 -0.084865
vt 1.000000 0.000000
vt 1.000000 1.000000
vt 0.000000 1.000000
vt 0.000000 0.000000
vn 0.0000 0.0000 -1.0000
usemtl Material
s off
f 33/33/9 34/34/9 36/35/9 35/36/9
o Cube_front_Cube.017
v -0.382481 6.432185 0.244865
v -0.382481 6.761914 0.244865
v -0.052752 6.432185 0.244865
v -0.052752 6.761914 0.244865
vt 1.000000 0.000000
vt 1.000000 1.000000
vt 0.000000 1.000000
vt 0.000000 0.000000
vn 0.0000 0.0000 1.0000
usemtl Material
s off
f 39/37/10 40/38/10 38/39/10 37/40/10
o Cube_right_Cube.016
v -0.382481 6.432185 0.244865
v -0.382481 6.761914 0.244865
v -0.382481 6.432185 -0.084865
v -0.382481 6.761914 -0.084865
vt 1.000000 0.000000
vt 1.000000 1.000000
vt 0.000000 1.000000
vt 0.000000 0.000000
vn -1.0000 0.0000 0.0000
usemtl Material
s off
f 41/41/11 42/42/11 44/43/11 43/44/11
o Cube_left_Cube.005
v -0.052752 6.432185 0.244865
v -0.052752 6.761914 0.244865
v -0.052752 6.432185 -0.084865
v -0.052752 6.761914 -0.084865
vt 1.000000 0.000000
vt 1.000000 1.000000
vt 0.000000 1.000000
vt 0.000000 0.000000
vn 1.0000 0.0000 0.0000
usemtl Material
s off
f 47/45/12 48/46/12 46/47/12 45/48/12
o Cube_down_Cube.004
v -0.382481 6.432185 0.244865
v -0.382481 6.432185 -0.084865
v -0.052752 6.432185 0.244865
v -0.052752 6.432185 -0.084865
vt 0.000000 0.000000
vt 1.000000 0.000000
vt 1.000000 1.000000
vt 0.000000 1.000000
vn 0.0000 -1.0000 0.0000
usemtl Material
s off
f 50/49/13 52/50/13 51/51/13 49/52/13
o Cube_top_Cube
v -0.382481 6.761914 0.244865
v -0.382481 6.761914 -0.084865
v -0.052752 6.761914 0.244865
v -0.052752 6.761914 -0.084865
vt -0.000000 0.000000
vt 1.000000 0.000000
vt 1.000000 1.000000
vt -0.000000 1.000000
vn 0.0000 1.0000 0.0000
usemtl Material
s off
f 56/53/14 54/54/14 53/55/14 55/56/14
o end_leg.right77_Cube.015
v -0.600505 0.005675 0.200000
v -0.600505 6.005675 0.200000
v -0.600505 0.005675 -0.200000
v -0.600505 6.005675 -0.200000
v -0.200505 0.005675 0.200000
v -0.200505 6.005675 0.200000
v -0.200505 0.005675 -0.200000
v -0.200505 6.005675 -0.200000
vt 0.906250 -0.000000
vt 0.875000 -0.000000
vt 0.875000 0.937500
vt 0.906250 0.937500
vt 1.000000 0.000000
vt 0.968750 0.000000
vt 0.968750 0.937500
vt 1.000000 0.937500
vt 0.937500 -0.000000
vt 0.937500 0.937500
vt 0.968750 1.000000
vt 0.968750 0.937500
vt 0.937500 0.937500
vt 0.937500 1.000000
vt 0.937500 1.000000
vt 0.906250 1.000000
vn 1.0000 0.0000 0.0000
vn 0.0000 0.0000 1.0000
vn -1.0000 0.0000 0.0000
vn 0.0000 0.0000 -1.0000
vn 0.0000 1.0000 0.0000
vn 0.0000 -1.0000 0.0000
usemtl Material
s off
f 57/57/15 59/58/15 60/59/15 58/60/15
f 59/61/16 63/62/16 64/63/16 60/64/16
f 63/62/17 61/65/17 62/66/17 64/63/17
f 61/65/18 57/57/18 58/60/18 62/66/18
f 59/67/19 57/68/19 61/69/19 63/70/19
f 64/71/20 62/66/20 58/60/20 60/72/20
o end_leg.left66_Cube.014
v 0.200236 0.005675 0.200000
v 0.200236 6.005675 0.200000
v 0.200236 0.005675 -0.200000
v 0.200236 6.005675 -0.200000
v 0.600236 0.005675 0.200000
v 0.600236 6.005675 0.200000
v 0.600236 0.005675 -0.200000
v 0.600236 6.005675 -0.200000
vt 0.937500 -0.000000
vt 0.968750 -0.000000
vt 0.968750 0.937500
vt 0.937500 0.937500
vt 1.000000 0.000000
vt 1.000000 0.937500
vt 0.875000 0.000000
vt 0.906250 0.000000
vt 0.906250 0.937500
vt 0.875000 0.937500
vt 0.968750 1.000000
vt 0.968750 0.937500
vt 0.937500 0.937500
vt 0.937500 1.000000
vt 0.937500 1.000000
vt 0.937500 0.937500
vt 0.906250 0.937500
vt 0.906250 1.000000
vn 1.0000 0.0000 0.0000
vn 0.0000 0.0000 1.0000
vn -1.0000 0.0000 0.0000
vn 0.0000 0.0000 -1.0000
vn 0.0000 1.0000 0.0000
vn 0.0000 -1.0000 0.0000
usemtl Material
s off
f 65/73/21 67/74/21 68/75/21 66/76/21
f 67/74/22 71/77/22 72/78/22 68/75/22
f 71/79/23 69/80/23 70/81/23 72/82/23
f 69/80/24 65/73/24 66/76/24 70/81/24
f 67/83/25 65/84/25 69/85/25 71/86/25
f 72/87/26 70/88/26 66/89/26 68/90/26
o end_headtop5_Cube.013
v -0.810000 7.770551 0.810000
v -0.810000 9.390552 0.810000
v -0.810000 7.770551 -0.810000
v -0.810000 9.390552 -0.810000
v 0.810000 7.770551 0.810000
v 0.810000 9.390552 0.810000
v 0.810000 7.770551 -0.810000
v 0.810000 9.390552 -0.810000
vt 0.125000 0.500000
vt 0.125000 0.750000
vt -0.000000 0.750000
vt 0.000000 0.500000
vt 0.500000 0.500000
vt 0.500000 0.750000
vt 0.375000 0.750000
vt 0.375000 0.500000
vt 0.250000 0.750000
vt 0.250000 0.500000
vt 0.375000 1.000000
vt 0.250000 1.000000
vt 0.250000 0.750000
vt 0.375000 0.750000
vt 0.250000 1.000000
vt 0.125000 1.000000
vn -1.0000 0.0000 0.0000
vn 0.0000 0.0000 -1.0000
vn 1.0000 0.0000 0.0000
vn 0.0000 0.0000 1.0000
vn 0.0000 -1.0000 0.0000
vn 0.0000 1.0000 0.0000
usemtl Material
s off
f 73/91/27 74/92/27 76/93/27 75/94/27
f 75/95/28 76/96/28 80/97/28 79/98/28
f 79/98/29 80/97/29 78/99/29 77/100/29
f 77/100/30 78/99/30 74/92/30 73/91/30
f 75/101/31 79/102/31 77/103/31 73/104/31
f 80/105/32 76/106/32 74/92/32 78/99/32
o end_headlow4_Cube.012
v -0.800000 7.780551 0.800000
v -0.800000 9.380551 0.800000
v -0.800000 7.780551 -0.800000
v -0.800000 9.380551 -0.800000
v 0.800000 7.780551 0.800000
v 0.800000 9.380551 0.800000
v 0.800000 7.780551 -0.800000
v 0.800000 9.380551 -0.800000
vt 0.125000 0.000000
vt 0.125000 0.250000
vt 0.000000 0.250000
vt 0.000000 0.000000
vt 0.500000 0.000000
vt 0.500000 0.250000
vt 0.375000 0.250000
vt 0.375000 0.000000
vt 0.250000 0.250000
vt 0.250000 0.000000
vt 0.375000 0.500000
vt 0.250000 0.500000
vt 0.250000 0.250000
vt 0.375000 0.250000
vt 0.250000 0.500000
vt 0.125000 0.500000
vn -1.0000 0.0000 0.0000
vn 0.0000 0.0000 -1.0000
vn 1.0000 0.0000 0.0000
vn 0.0000 0.0000 1.0000
vn 0.0000 -1.0000 0.0000
vn 0.0000 1.0000 0.0000
usemtl Material
s off
f 81/107/33 82/108/33 84/109/33 83/110/33
f 83/111/34 84/112/34 88/113/34 87/114/34
f 87/114/35 88/113/35 86/115/35 85/116/35
f 85/116/36 86/115/36 82/108/36 81/107/36
f 83/117/37 87/118/37 85/119/37 81/120/37
f 88/121/38 84/122/38 82/108/38 86/115/38
o end_body33_Cube.011
v -0.800000 5.384696 0.400000
v -0.800000 7.784696 0.400000
v -0.800000 5.384696 -0.400000
v -0.800000 7.784696 -0.400000
v 0.800000 5.384696 0.400000
v 0.800000 7.784696 0.400000
v 0.800000 5.384696 -0.400000
v 0.800000 7.784696 -0.400000
vt 0.562500 0.000000
vt 0.500000 -0.000000
vt 0.500000 0.375000
vt 0.562500 0.375000
vt 0.875000 -0.000000
vt 0.750000 -0.000000
vt 0.750000 0.375000
vt 0.875000 0.375000
vt 0.687500 0.000000
vt 0.687500 0.375000
vt 0.812500 0.500000
vt 0.812500 0.375000
vt 0.687500 0.375000
vt 0.687500 0.500000
vt 0.687500 0.500000
vt 0.562500 0.500000
vn 1.0000 0.0000 0.0000
vn 0.0000 0.0000 1.0000
vn -1.0000 0.0000 0.0000
vn 0.0000 0.0000 -1.0000
vn 0.0000 1.0000 0.0000
vn 0.0000 -1.0000 0.0000
usemtl Material
s off
f 89/123/39 91/124/39 92/125/39 90/126/39
f 91/127/40 95/128/40 96/129/40 92/130/40
f 95/128/41 93/131/41 94/132/41 96/129/41
f 93/131/42 89/123/42 90/126/42 94/132/42
f 91/133/43 89/134/43 93/135/43 95/136/43
f 96/137/44 94/132/44 90/126/44 92/138/44
o end_arm.right22_Cube.010
v -1.200420 1.797330 0.200000
v -1.200420 7.797330 0.200000
v -1.200420 1.797330 -0.200000
v -1.200420 7.797330 -0.200000
v -0.800420 1.797330 0.200000
v -0.800420 7.797330 0.200000
v -0.800420 1.797330 -0.200000
v -0.800420 7.797330 -0.200000
vt 0.906250 -0.000000
vt 0.875000 -0.000000
vt 0.875000 0.937500
vt 0.906250 0.937500
vt 1.000000 0.000000
vt 0.968750 0.000000
vt 0.968750 0.937500
vt 1.000000 0.937500
vt 0.937500 -0.000000
vt 0.937500 0.937500
vt 0.968750 1.000000
vt 0.968750 0.937500
vt 0.937500 0.937500
vt 0.937500 1.000000
vt 0.937500 1.000000
vt 0.906250 1.000000
vn 1.0000 0.0000 0.0000
vn 0.0000 0.0000 1.0000
vn -1.0000 0.0000 0.0000
vn 0.0000 0.0000 -1.0000
vn 0.0000 1.0000 0.0000
vn 0.0000 -1.0000 0.0000
usemtl Material
s off
f 97/139/45 99/140/45 100/141/45 98/142/45
f 99/143/46 103/144/46 104/145/46 100/146/46
f 103/144/47 101/147/47 102/148/47 104/145/47
f 101/147/48 97/139/48 98/142/48 102/148/48
f 99/149/49 97/150/49 101/151/49 103/152/49
f 104/153/50 102/148/50 98/142/50 100/154/50
o end_arm.left11_Cube.007
v 0.800420 1.797330 0.200000
v 0.800420 7.797330 0.200000
v 0.800420 1.797330 -0.200000
v 0.800420 7.797330 -0.200000
v 1.200420 1.797330 0.200000
v 1.200420 7.797330 0.200000
v 1.200420 1.797330 -0.200000
v 1.200420 7.797330 -0.200000
vt 0.937500 -0.000000
vt 0.968750 -0.000000
vt 0.968750 0.937500
vt 0.937500 0.937500
vt 1.000000 0.000000
vt 1.000000 0.937500
vt 0.875000 0.000000
vt 0.906250 0.000000
vt 0.906250 0.937500
vt 0.875000 0.937500
vt 0.968750 1.000000
vt 0.968750 0.937500
vt 0.937500 0.937500
vt 0.937500 1.000000
vt 0.937500 1.000000
vt 0.937500 0.937500
vt 0.906250 0.937500
vt 0.906250 1.000000
vn 1.0000 0.0000 0.0000
vn 0.0000 0.0000 1.0000
vn -1.0000 0.0000 0.0000
vn 0.0000 0.0000 -1.0000
vn 0.0000 1.0000 0.0000
vn 0.0000 -1.0000 0.0000
usemtl Material
s off
f 105/155/51 107/156/51 108/157/51 106/158/51
f 107/156/52 111/159/52 112/160/52 108/157/52
f 111/161/53 109/162/53 110/163/53 112/164/53
f 109/162/54 105/155/54 106/158/54 110/163/54
f 107/165/55 105/166/55 109/167/55 111/168/55
f 112/169/56 110/170/56 106/171/56 108/172/56
o end_arm.left1_Cube.006
v 0.800420 1.797330 0.200000
v 0.800420 7.797330 0.200000
v 0.800420 1.797330 -0.200000
v 0.800420 7.797330 -0.200000
v 1.200420 1.797330 0.200000
v 1.200420 7.797330 0.200000
v 1.200420 1.797330 -0.200000
v 1.200420 7.797330 -0.200000
vt 0.937500 -0.000000
vt 0.937500 0.937500
vt 0.968750 0.937500
vt 0.968750 -0.000000
vt 1.000000 0.937500
vt 1.000000 0.000000
vt 0.875000 0.000000
vt 0.875000 0.937500
vt 0.906250 0.937500
vt 0.906250 0.000000
vt 0.968750 1.000000
vt 0.937500 1.000000
vt 0.937500 0.937500
vt 0.968750 0.937500
vt 0.937500 1.000000
vt 0.906250 1.000000
vt 0.906250 0.937500
vt 0.937500 0.937500
vn -1.0000 0.0000 0.0000
vn 0.0000 0.0000 -1.0000
vn 1.0000 0.0000 0.0000
vn 0.0000 0.0000 1.0000
vn 0.0000 -1.0000 0.0000
vn 0.0000 1.0000 0.0000
usemtl Material
s off
f 113/173/57 114/174/57 116/175/57 115/176/57
f 115/176/58 116/175/58 120/177/58 119/178/58
f 119/179/59 120/180/59 118/181/59 117/182/59
f 117/182/60 118/181/60 114/174/60 113/173/60
f 115/183/61 119/184/61 117/185/61 113/186/61
f 120/187/62 116/188/62 114/189/62 118/190/62
o end_arm.right2_Cube.000
v -1.200420 1.797330 0.200000
v -1.200420 7.797330 0.200000
v -1.200420 1.797330 -0.200000
v -1.200420 7.797330 -0.200000
v -0.800420 1.797330 0.200000
v -0.800420 7.797330 0.200000
v -0.800420 1.797330 -0.200000
v -0.800420 7.797330 -0.200000
vt 0.906250 -0.000000
vt 0.906250 0.937500
vt 0.875000 0.937500
vt 0.875000 -0.000000
vt 1.000000 0.000000
vt 1.000000 0.937500
vt 0.968750 0.937500
vt 0.968750 0.000000
vt 0.937500 0.937500
vt 0.937500 -0.000000
vt 0.968750 1.000000
vt 0.937500 1.000000
vt 0.937500 0.937500
vt 0.968750 0.937500
vt 0.937500 1.000000
vt 0.906250 1.000000
vn -1.0000 0.0000 0.0000
vn 0.0000 0.0000 -1.0000
vn 1.0000 0.0000 0.0000
vn 0.0000 0.0000 1.0000
vn 0.0000 -1.0000 0.0000
vn 0.0000 1.0000 0.0000
usemtl Material
s off
f 121/191/63 122/192/63 124/193/63 123/194/63
f 123/195/64 124/196/64 128/197/64 127/198/64
f 127/198/65 128/197/65 126/199/65 125/200/65
f 125/200/66 126/199/66 122/192/66 121/191/66
f 123/201/67 127/202/67 125/203/67 121/204/67
f 128/205/68 124/206/68 122/192/68 126/199/68
o end_headtop55_Cube.009
v -0.810000 7.770551 0.810000
v -0.810000 9.390552 0.810000
v -0.810000 7.770551 -0.810000
v -0.810000 9.390552 -0.810000
v 0.810000 7.770551 0.810000
v 0.810000 9.390552 0.810000
v 0.810000 7.770551 -0.810000
v 0.810000 9.390552 -0.810000
vt 0.125000 0.500000
vt 0.000000 0.500000
vt -0.000000 0.750000
vt 0.125000 0.750000
vt 0.500000 0.500000
vt 0.375000 0.500000
vt 0.375000 0.750000
vt 0.500000 0.750000
vt 0.250000 0.500000
vt 0.250000 0.750000
vt 0.375000 1.000000
vt 0.375000 0.750000
vt 0.250000 0.750000
vt 0.250000 1.000000
vt 0.250000 1.000000
vt 0.125000 1.000000
vn 1.0000 0.0000 0.0000
vn 0.0000 0.0000 1.0000
vn -1.0000 0.0000 0.0000
vn 0.0000 0.0000 -1.0000
vn 0.0000 1.0000 0.0000
vn 0.0000 -1.0000 0.0000
usemtl Material
s off
f 129/207/69 131/208/69 132/209/69 130/210/69
f 131/211/70 135/212/70 136/213/70 132/214/70
f 135/212/71 133/215/71 134/216/71 136/213/71
f 133/215/72 129/207/72 130/210/72 134/216/72
f 131/217/73 129/218/73 133/219/73 135/220/73
f 136/221/74 134/216/74 130/210/74 132/222/74
o end_headlow44_Cube.008
v -0.800000 7.780551 0.800000
v -0.800000 9.380551 0.800000
v -0.800000 7.780551 -0.800000
v -0.800000 9.380551 -0.800000
v 0.800000 7.780551 0.800000
v 0.800000 9.380551 0.800000
v 0.800000 7.780551 -0.800000
v 0.800000 9.380551 -0.800000
vt 0.125000 0.000000
vt 0.000000 0.000000
vt 0.000000 0.250000
vt 0.125000 0.250000
vt 0.500000 0.000000
vt 0.375000 0.000000
vt 0.375000 0.250000
vt 0.500000 0.250000
vt 0.250000 0.000000
vt 0.250000 0.250000
vt 0.375000 0.500000
vt 0.375000 0.250000
vt 0.250000 0.250000
vt 0.250000 0.500000
vt 0.250000 0.500000
vt 0.125000 0.500000
vn 1.0000 0.0000 0.0000
vn 0.0000 0.0000 1.0000
vn -1.0000 0.0000 0.0000
vn 0.0000 0.0000 -1.0000
vn 0.0000 1.0000 0.0000
vn 0.0000 -1.0000 0.0000
usemtl Material
s off
f 137/223/75 139/224/75 140/225/75 138/226/75
f 139/227/76 143/228/76 144/229/76 140/230/76
f 143/228/77 141/231/77 142/232/77 144/229/77
f 141/231/78 137/223/78 138/226/78 142/232/78
f 139/233/79 137/234/79 141/235/79 143/236/79
f 144/237/80 142/232/80 138/226/80 140/238/80
o end_leg.left6_Cube.003
v 0.200236 0.005675 0.200000
v 0.200236 6.005675 0.200000
v 0.200236 0.005675 -0.200000
v 0.200236 6.005675 -0.200000
v 0.600236 0.005675 0.200000
v 0.600236 6.005675 0.200000
v 0.600236 0.005675 -0.200000
v 0.600236 6.005675 -0.200000
vt 0.937500 -0.000000
vt 0.937500 0.937500
vt 0.968750 0.937500
vt 0.968750 -0.000000
vt 1.000000 0.937500
vt 1.000000 0.000000
vt 0.875000 0.000000
vt 0.875000 0.937500
vt 0.906250 0.937500
vt 0.906250 0.000000
vt 0.968750 1.000000
vt 0.937500 1.000000
vt 0.937500 0.937500
vt 0.968750 0.937500
vt 0.937500 1.000000
vt 0.906250 1.000000
vt 0.906250 0.937500
vt 0.937500 0.937500
vn -1.0000 0.0000 0.0000
vn 0.0000 0.0000 -1.0000
vn 1.0000 0.0000 0.0000
vn 0.0000 0.0000 1.0000
vn 0.0000 -1.0000 0.0000
vn 0.0000 1.0000 0.0000
usemtl Material
s off
f 145/239/81 146/240/81 148/241/81 147/242/81
f 147/242/82 148/241/82 152/243/82 151/244/82
f 151/245/83 152/246/83 150/247/83 149/248/83
f 149/248/84 150/247/84 146/240/84 145/239/84
f 147/249/85 151/250/85 149/251/85 145/252/85
f 152/253/86 148/254/86 146/255/86 150/256/86
o end_leg.right7_Cube.002
v -0.600505 0.005675 0.200000
v -0.600505 6.005675 0.200000
v -0.600505 0.005675 -0.200000
v -0.600505 6.005675 -0.200000
v -0.200505 0.005675 0.200000
v -0.200505 6.005675 0.200000
v -0.200505 0.005675 -0.200000
v -0.200505 6.005675 -0.200000
vt 0.906250 -0.000000
vt 0.906250 0.937500
vt 0.875000 0.937500
vt 0.875000 -0.000000
vt 1.000000 0.000000
vt 1.000000 0.937500
vt 0.968750 0.937500
vt 0.968750 0.000000
vt 0.937500 0.937500
vt 0.937500 -0.000000
vt 0.968750 1.000000
vt 0.937500 1.000000
vt 0.937500 0.937500
vt 0.968750 0.937500
vt 0.937500 1.000000
vt 0.906250 1.000000
vn -1.0000 0.0000 0.0000
vn 0.0000 0.0000 -1.0000
vn 1.0000 0.0000 0.0000
vn 0.0000 0.0000 1.0000
vn 0.0000 -1.0000 0.0000
vn 0.0000 1.0000 0.0000
usemtl Material
s off
f 153/257/87 154/258/87 156/259/87 155/260/87
f 155/261/88 156/262/88 160/263/88 159/264/88
f 159/264/89 160/263/89 158/265/89 157/266/89
f 157/266/90 158/265/90 154/258/90 153/257/90
f 155/267/91 159/268/91 157/269/91 153/270/91
f 160/271/92 156/272/92 154/258/92 158/265/92
o end_body3_Cube.001
v -0.800000 5.384696 0.400000
v -0.800000 7.784696 0.400000
v -0.800000 5.384696 -0.400000
v -0.800000 7.784696 -0.400000
v 0.800000 5.384696 0.400000
v 0.800000 7.784696 0.400000
v 0.800000 5.384696 -0.400000
v 0.800000 7.784696 -0.400000
vt 0.562500 0.000000
vt 0.562500 0.375000
vt 0.500000 0.375000
vt 0.500000 -0.000000
vt 0.875000 -0.000000
vt 0.875000 0.375000
vt 0.750000 0.375000
vt 0.750000 -0.000000
vt 0.687500 0.375000
vt 0.687500 0.000000
vt 0.812500 0.500000
vt 0.687500 0.500000
vt 0.687500 0.375000
vt 0.812500 0.375000
vt 0.687500 0.500000
vt 0.562500 0.500000
vn -1.0000 0.0000 0.0000
vn 0.0000 0.0000 -1.0000
vn 1.0000 0.0000 0.0000
vn 0.0000 0.0000 1.0000
vn 0.0000 -1.0000 0.0000
vn 0.0000 1.0000 0.0000
usemtl Material
s off
f 161/273/93 162/274/93 164/275/93 163/276/93
f 163/277/94 164/278/94 168/279/94 167/280/94
f 167/280/95 168/279/95 166/281/95 165/282/95
f 165/282/96 166/281/96 162/274/96 161/273/96
f 163/283/97 167/284/97 165/285/97 161/286/97
f 168/287/98 164/288/98 162/274/98 166/281/98
