# Blender v2.93.2 OBJ File: 'hoglin+zoglin.blend'
# www.blender.org
mtllib zoglin.mtl
o hoglin_hair.left_Plane.001
v 0.000001 4.182748 -0.599980
v -0.000000 4.182747 3.200020
v 0.000000 6.982748 -0.599979
v -0.000001 6.982747 3.200021
v 0.000001 4.182748 -0.599980
v -0.000000 4.182747 3.200020
v 0.000000 6.982748 -0.599979
v -0.000001 6.982747 3.200021
vt 0.703125 0.031250
vt 0.851562 0.031250
vt 0.851562 0.250000
vt 0.703125 0.250000
vt 1.000000 0.031250
vt 1.000000 0.250000
vt 0.851562 0.250000
vt 0.851562 0.031250
vn -1.0000 -0.0000 -0.0000
vn 1.0000 0.0000 0.0000
usemtl Material
s off
f 1/1/1 2/2/1 4/3/1 3/4/1
f 5/5/2 7/6/2 8/7/2 6/8/2
o hoglin_horn.right_Cube.009
v -1.603480 2.257568 3.962349
v -1.603480 3.813203 5.517984
v -1.603480 2.540411 3.679507
v -1.603480 4.096045 5.235141
v -1.203480 2.257568 3.962349
v -1.203480 3.813203 5.517984
v -1.203480 2.540411 3.679507
v -1.203480 4.096045 5.235141
vt 0.023438 0.593750
vt 0.023438 0.765625
vt 0.007812 0.765625
vt 0.007812 0.593750
vt 0.070312 0.593750
vt 0.070312 0.765625
vt 0.054688 0.765625
vt 0.054688 0.593750
vt 0.039062 0.765625
vt 0.039062 0.593750
vt 0.023438 0.593750
vt 0.023438 0.765625
vt 0.007812 0.765625
vt 0.007812 0.593750
vt 0.054688 0.796875
vt 0.039062 0.796875
vt 0.039062 0.765625
vt 0.054688 0.765625
vt 0.039062 0.796875
vt 0.023438 0.796875
vn -1.0000 0.0000 0.0000
vn 0.0000 0.7071 -0.7071
vn 1.0000 -0.0000 0.0000
vn 0.0000 -0.7071 0.7071
vn 0.0000 -0.7071 -0.7071
vn 0.0000 0.7071 0.7071
usemtl Material
s off
f 9/9/3 10/10/3 12/11/3 11/12/3
f 11/13/4 12/14/4 16/15/4 15/16/4
f 15/16/5 16/15/5 14/17/5 13/18/5
f 13/19/6 14/20/6 10/21/6 9/22/6
f 11/23/7 15/24/7 13/25/7 9/26/7
f 16/27/8 12/28/8 10/10/8 14/17/8
o hoglin_leg.front.right_Cube.008
v -1.393090 -0.013204 2.292154
v -1.393090 2.786796 2.292154
v -1.393090 -0.013204 1.092154
v -1.393090 2.786796 1.092154
v -0.193090 -0.013204 2.292154
v -0.193090 2.786796 2.292154
v -0.193090 -0.013204 1.092154
v -0.193090 2.786796 1.092154
vt 0.562500 0.031250
vt 0.562500 0.250000
vt 0.515625 0.250000
vt 0.515625 0.031250
vt 0.703125 0.031250
vt 0.703125 0.250000
vt 0.656250 0.250000
vt 0.656250 0.031250
vt 0.609375 0.250000
vt 0.609375 0.031250
vt 0.656250 0.343750
vt 0.609375 0.343750
vt 0.609375 0.250000
vt 0.656250 0.250000
vt 0.609375 0.343750
vt 0.562500 0.343750
vn -1.0000 -0.0000 0.0000
vn 0.0000 0.0000 -1.0000
vn 1.0000 0.0000 0.0000
vn 0.0000 0.0000 1.0000
vn 0.0000 -1.0000 0.0000
vn 0.0000 1.0000 -0.0000
usemtl Material
s off
f 17/29/9 18/30/9 20/31/9 19/32/9
f 19/33/10 20/34/10 24/35/10 23/36/10
f 23/36/11 24/35/11 22/37/11 21/38/11
f 21/38/12 22/37/12 18/30/12 17/29/12
f 19/39/13 23/40/13 21/41/13 17/42/13
f 24/43/14 20/44/14 18/30/14 22/37/14
o hoglin_leg.front.left_Cube.007
v 0.193090 -0.013204 2.292154
v 0.193090 2.786796 2.292154
v 0.193090 -0.013204 1.092154
v 0.193090 2.786796 1.092154
v 1.393090 -0.013204 2.292154
v 1.393090 2.786796 2.292154
v 1.393090 -0.013204 1.092154
v 1.393090 2.786796 1.092154
vt 0.367188 0.031250
vt 0.367188 0.250000
vt 0.320312 0.250000
vt 0.320312 0.031250
vt 0.507812 0.031250
vt 0.507812 0.250000
vt 0.460938 0.250000
vt 0.460938 0.031250
vt 0.414062 0.250000
vt 0.414062 0.031250
vt 0.460938 0.343750
vt 0.414062 0.343750
vt 0.414062 0.250000
vt 0.460938 0.250000
vt 0.414062 0.343750
vt 0.367188 0.343750
vn -1.0000 0.0000 0.0000
vn 0.0000 0.0000 -1.0000
vn 1.0000 -0.0000 0.0000
vn 0.0000 0.0000 1.0000
vn 0.0000 -1.0000 0.0000
vn 0.0000 1.0000 -0.0000
usemtl Material
s off
f 25/45/15 26/46/15 28/47/15 27/48/15
f 27/49/16 28/50/16 32/51/16 31/52/16
f 31/52/17 32/51/17 30/53/17 29/54/17
f 29/54/18 30/53/18 26/46/18 25/45/18
f 27/55/19 31/56/19 29/57/19 25/58/19
f 32/59/20 28/60/20 26/46/20 30/53/20
o hoglin_leg.back.right_Cube.006
v -1.500850 -0.013065 -1.499992
v -1.500850 2.186935 -1.499992
v -1.500850 -0.013065 -2.499992
v -1.500850 2.186935 -2.499992
v -0.500850 -0.013065 -1.499992
v -0.500850 2.186935 -1.499992
v -0.500850 -0.013065 -2.499992
v -0.500850 2.186935 -2.499992
vt 0.203125 0.046875
vt 0.203125 0.218750
vt 0.164062 0.218750
vt 0.164062 0.046875
vt 0.320312 0.046875
vt 0.320312 0.218750
vt 0.281250 0.218750
vt 0.281250 0.046875
vt 0.242188 0.218750
vt 0.242188 0.046875
vt 0.281250 0.296875
vt 0.242188 0.296875
vt 0.242188 0.218750
vt 0.281250 0.218750
vt 0.242188 0.296875
vt 0.203125 0.296875
vn -1.0000 0.0000 0.0000
vn 0.0000 0.0000 -1.0000
vn 1.0000 -0.0000 0.0000
vn 0.0000 -0.0000 1.0000
vn 0.0000 -1.0000 0.0000
vn 0.0000 1.0000 -0.0000
usemtl Material
s off
f 33/61/21 34/62/21 36/63/21 35/64/21
f 35/65/22 36/66/22 40/67/22 39/68/22
f 39/68/23 40/67/23 38/69/23 37/70/23
f 37/70/24 38/69/24 34/62/24 33/61/24
f 35/71/25 39/72/25 37/73/25 33/74/25
f 40/75/26 36/76/26 34/62/26 38/69/26
o hoglin_leg.back.left_Cube.005
v 0.500850 -0.013065 -1.499992
v 0.500850 2.186935 -1.499992
v 0.500850 -0.013065 -2.499992
v 0.500850 2.186935 -2.499992
v 1.500850 -0.013065 -1.499992
v 1.500850 2.186935 -1.499992
v 1.500850 -0.013065 -2.499992
v 1.500850 2.186935 -2.499992
vt 0.039062 0.046875
vt 0.039062 0.218750
vt 0.000000 0.218750
vt 0.000000 0.046875
vt 0.156250 0.046875
vt 0.156250 0.218750
vt 0.117188 0.218750
vt 0.117188 0.046875
vt 0.078125 0.218750
vt 0.078125 0.046875
vt 0.117188 0.296875
vt 0.078125 0.296875
vt 0.078125 0.218750
vt 0.117188 0.218750
vt 0.078125 0.296875
vt 0.039062 0.296875
vn -1.0000 0.0000 0.0000
vn 0.0000 0.0000 -1.0000
vn 1.0000 0.0000 0.0000
vn 0.0000 -0.0000 1.0000
vn 0.0000 -1.0000 0.0000
vn 0.0000 1.0000 -0.0000
usemtl Material
s off
f 41/77/27 42/78/27 44/79/27 43/80/27
f 43/81/28 44/82/28 48/83/28 47/84/28
f 47/84/29 48/83/29 46/85/29 45/86/29
f 45/86/30 46/85/30 42/78/30 41/77/30
f 43/87/31 47/88/31 45/89/31 41/90/31
f 48/91/32 44/92/32 42/78/32 46/85/32
o hoglin_head_Cube.004
v -1.400000 1.270286 4.667736
v -1.400000 2.118814 5.516263
v -1.400000 3.957291 1.980731
v -1.400000 4.805820 2.829258
v 1.400000 1.270286 4.667736
v 1.400000 2.118814 5.516263
v 1.400000 3.957291 1.980731
v 1.400000 4.805820 2.829258
vt 0.625000 0.593750
vt 0.625000 0.687500
vt 0.476562 0.687500
vt 0.476562 0.593750
vt 0.992188 0.593750
vt 0.992188 0.687500
vt 0.882812 0.687500
vt 0.882812 0.593750
vt 0.734375 0.687500
vt 0.734375 0.593750
vt 0.734375 0.984375
vt 0.843750 0.984375
vt 0.843750 0.687500
vt 0.734375 0.687500
vt 0.734375 0.984375
vt 0.625000 0.984375
vn -1.0000 -0.0000 0.0000
vn 0.0000 0.7071 -0.7071
vn 1.0000 -0.0000 0.0000
vn 0.0000 -0.7071 0.7071
vn 0.0000 -0.7071 -0.7071
vn 0.0000 0.7071 0.7071
usemtl Material
s off
f 49/93/33 50/94/33 52/95/33 51/96/33
f 51/97/34 52/98/34 56/99/34 55/100/34
f 55/100/35 56/99/35 54/101/35 53/102/35
f 53/102/36 54/101/36 50/94/36 49/93/36
f 51/103/37 55/104/37 53/105/37 49/106/37
f 56/107/38 52/108/38 50/94/38 54/101/38
o hoglin_ear.right_Cube.003
v -2.228364 3.390305 2.830767
v -2.369785 3.490304 2.930767
v -2.228364 3.955990 2.265081
v -2.369785 4.055990 2.365081
v -1.379835 3.990304 3.430767
v -1.521257 4.090304 3.530766
v -1.379835 4.555990 2.865081
v -1.521257 4.655990 2.965081
vt 0.039062 0.906250
vt 0.039062 0.921875
vt 0.007812 0.921875
vt 0.007812 0.906250
vt 0.164062 0.906250
vt 0.164062 0.921875
vt 0.117188 0.921875
vt 0.117188 0.906250
vt 0.085938 0.921875
vt 0.085938 0.906250
vt 0.132812 0.984375
vt 0.085938 0.984375
vt 0.085938 0.921875
vt 0.132812 0.921875
vt 0.085938 0.984375
vt 0.039062 0.984375
vn -0.7071 -0.5000 -0.5000
vn 0.0000 0.7071 -0.7071
vn 0.7071 0.5000 0.5000
vn 0.0000 -0.7071 0.7071
vn 0.7071 -0.5000 -0.5000
vn -0.7071 0.5000 0.5000
usemtl Material
s off
f 57/109/39 58/110/39 60/111/39 59/112/39
f 59/113/40 60/114/40 64/115/40 63/116/40
f 63/116/41 64/115/41 62/117/41 61/118/41
f 61/118/42 62/117/42 58/110/42 57/109/42
f 59/119/43 63/120/43 61/121/43 57/122/43
f 64/123/44 60/124/44 58/110/44 62/117/44
o hoglin_ear.left_Cube.002
v 1.379835 3.990304 3.430765
v 1.521256 4.090304 3.530765
v 1.379835 4.555990 2.865080
v 1.521256 4.655990 2.965080
v 2.228363 3.390304 2.830765
v 2.369784 3.490304 2.930765
v 2.228363 3.955990 2.265080
v 2.369784 4.055990 2.365080
vt 0.039062 0.828125
vt 0.039062 0.843750
vt 0.007812 0.843750
vt 0.007812 0.828125
vt 0.164062 0.828125
vt 0.164062 0.843750
vt 0.117188 0.843750
vt 0.117188 0.828125
vt 0.085938 0.843750
vt 0.085938 0.828125
vt 0.132812 0.906250
vt 0.085938 0.906250
vt 0.085938 0.843750
vt 0.132812 0.843750
vt 0.085938 0.906250
vt 0.039062 0.906250
vn -0.7071 0.5000 0.5000
vn -0.0000 0.7071 -0.7071
vn 0.7071 -0.5000 -0.5000
vn 0.0000 -0.7071 0.7071
vn -0.7071 -0.5000 -0.5000
vn 0.7071 0.5000 0.5000
usemtl Material
s off
f 65/125/45 66/126/45 68/127/45 67/128/45
f 67/129/46 68/130/46 72/131/46 71/132/46
f 71/132/47 72/131/47 70/133/47 69/134/47
f 69/134/48 70/133/48 66/126/48 65/125/48
f 67/135/49 71/136/49 69/137/49 65/138/49
f 72/139/50 68/140/50 66/126/50 70/133/50
o hoglin_horn.left_Cube.001
v 1.203475 2.257568 3.962349
v 1.203475 3.813202 5.517984
v 1.203475 2.540411 3.679507
v 1.203475 4.096045 5.235141
v 1.603475 2.257568 3.962349
v 1.603475 3.813202 5.517984
v 1.603475 2.540411 3.679507
v 1.603475 4.096045 5.235141
vt 0.023438 0.593750
vt 0.023438 0.765625
vt 0.007812 0.765625
vt 0.007812 0.593750
vt 0.070312 0.593750
vt 0.070312 0.765625
vt 0.054688 0.765625
vt 0.054688 0.593750
vt 0.039062 0.765625
vt 0.039062 0.593750
vt 0.054688 0.796875
vt 0.039062 0.796875
vt 0.039062 0.765625
vt 0.054688 0.765625
vt 0.039062 0.796875
vt 0.023438 0.796875
vn -1.0000 0.0000 0.0000
vn 0.0000 0.7071 -0.7071
vn 1.0000 0.0000 0.0000
vn 0.0000 -0.7071 0.7071
vn 0.0000 -0.7071 -0.7071
vn 0.0000 0.7071 0.7071
usemtl Material
s off
f 73/141/51 74/142/51 76/143/51 75/144/51
f 75/145/52 76/146/52 80/147/52 79/148/52
f 79/148/53 80/147/53 78/149/53 77/150/53
f 77/150/54 78/149/54 74/142/54 73/141/54
f 75/151/55 79/152/55 77/153/55 73/154/55
f 80/155/56 76/156/56 74/142/56 78/149/56
o hoglin_body_Cube
v -1.600000 1.981901 2.599999
v -1.600000 4.781901 2.599999
v -1.600000 1.981901 -2.600000
v -1.600000 4.781901 -2.600000
v 1.600000 1.981901 2.599999
v 1.600000 4.781901 2.599999
v 1.600000 1.981901 -2.600000
v 1.600000 4.781901 -2.600000
vt 0.210938 0.359375
vt 0.210938 0.578125
vt 0.007812 0.578125
vt 0.007812 0.359375
vt 0.664062 0.359375
vt 0.664062 0.578125
vt 0.539062 0.578125
vt 0.539062 0.359375
vt 0.335938 0.578125
vt 0.335938 0.359375
vt 0.335938 0.984375
vt 0.460938 0.984375
vt 0.460938 0.578125
vt 0.335938 0.578125
vt 0.335938 0.984375
vt 0.210938 0.984375
vn -1.0000 0.0000 0.0000
vn 0.0000 0.0000 -1.0000
vn 1.0000 0.0000 0.0000
vn 0.0000 0.0000 1.0000
vn 0.0000 -1.0000 0.0000
vn 0.0000 1.0000 0.0000
usemtl Material
s off
f 81/157/57 82/158/57 84/159/57 83/160/57
f 83/161/58 84/162/58 88/163/58 87/164/58
f 87/164/59 88/163/59 86/165/59 85/166/59
f 85/166/60 86/165/60 82/158/60 81/157/60
f 83/167/61 87/168/61 85/169/61 81/170/61
f 88/171/62 84/172/62 82/158/62 86/165/62
