# Blender v2.82 (sub 7) OBJ File: ''
# www.blender.org
mtllib seven.mtl
o Text_Lives
v 0.094000 0.029000 0.050000
v 0.344000 0.589000 0.050000
v 0.049000 0.589000 0.050000
v 0.049000 0.682000 0.050000
v 0.490000 0.682000 0.050000
v 0.181000 -0.009000 0.050000
v 0.094000 0.029000 -0.050000
v 0.344000 0.589000 -0.050000
v 0.049000 0.589000 -0.050000
v 0.049000 0.682000 -0.050000
v 0.490000 0.682000 -0.050000
v 0.181000 -0.009000 -0.050000
v 0.094000 0.029000 -0.050000
v 0.094000 0.029000 0.050000
v 0.344000 0.589000 -0.050000
v 0.344000 0.589000 0.050000
v 0.049000 0.589000 -0.050000
v 0.049000 0.589000 0.050000
v 0.049000 0.682000 -0.050000
v 0.049000 0.682000 0.050000
v 0.490000 0.682000 -0.050000
v 0.490000 0.682000 0.050000
v 0.181000 -0.009000 -0.050000
v 0.181000 -0.009000 0.050000
vt 0.400000 0.000000
vt 0.800000 0.000000
vt 0.600000 0.000000
vt 0.200000 0.000000
vt 1.000000 0.000000
vt 0.000000 0.000000
vt 0.800000 0.000000
vt 0.400000 0.000000
vt 0.600000 0.000000
vt 0.200000 0.000000
vt 1.000000 0.000000
vt 0.000000 0.000000
vt 0.000000 1.000000
vt 0.166667 1.000000
vt 0.166667 0.000000
vt 0.000000 0.000000
vt 0.333333 1.000000
vt 0.333333 0.000000
vt 0.500000 1.000000
vt 0.500000 0.000000
vt 0.666667 1.000000
vt 0.666667 0.000000
vt 0.833333 1.000000
vt 0.833333 0.000000
vt 1.000000 1.000000
vt 1.000000 0.000000
vn 0.0000 -0.0000 1.0000
vn 0.0000 0.0000 -1.0000
vn -0.9325 -0.3612 0.0000
vn -0.8389 -0.5442 0.0000
vn -0.7071 -0.7071 0.0000
vn -0.7071 0.7071 0.0000
vn 0.8391 0.5439 0.0000
vn 0.3609 -0.9326 0.0000
usemtl None
s off
f 3/1/1 5/2/1 4/3/1
f 3/1/1 2/4/1 5/2/1
f 2/4/1 6/5/1 5/2/1
f 1/6/1 6/5/1 2/4/1
f 11/7/2 9/8/2 10/9/2
f 8/10/2 9/8/2 11/7/2
f 12/11/2 8/10/2 11/7/2
f 12/11/2 7/12/2 8/10/2
s 1
f 14/13/3 16/14/4 15/15/4 13/16/3
f 16/14/4 18/17/5 17/18/5 15/15/4
f 18/17/5 20/19/6 19/20/6 17/18/5
f 20/19/6 22/21/7 21/22/7 19/20/6
f 22/21/7 24/23/8 23/24/8 21/22/7
f 24/23/8 14/25/3 13/26/3 23/24/8
