# Blender v2.93.2 OBJ File: 'chicken.blend'
# www.blender.org
mtllib chicken.mtl
o leg.upper.left1_Plane.011
v 0.197781 0.000002 -0.134499
v 0.397781 0.000002 -0.134499
v 0.197781 1.000002 -0.134499
v 0.397781 1.000002 -0.134499
vt 0.562500 0.750000
vt 0.578125 0.750000
vt 0.578125 0.906250
vt 0.562500 0.906250
vn 0.0000 -0.0000 1.0000
usemtl Material
s off
f 1/1/1 2/2/1 4/3/1 3/4/1
o leg.left.low1_Plane.010
v -0.002219 -0.000000 0.456209
v 0.597781 -0.000000 0.456209
v -0.002219 -0.000000 -0.143791
v 0.597781 -0.000000 -0.143791
vt 0.500000 0.906250
vt 0.546875 0.906250
vt 0.546875 1.000000
vt 0.500000 1.000000
vn 0.0000 1.0000 0.0000
usemtl Material
s off
f 5/5/2 6/6/2 8/7/2 7/8/2
o leg.left.low2_Plane.009
v -0.002219 -0.000000 0.456209
v 0.597781 -0.000000 0.456209
v -0.002219 -0.000000 -0.143791
v 0.597781 -0.000000 -0.143791
vt 0.500000 0.906250
vt 0.500000 1.000000
vt 0.546875 1.000000
vt 0.546875 0.906250
vn 0.0000 -1.0000 0.0000
usemtl Material
s off
f 9/9/3 11/10/3 12/11/3 10/12/3
o leg.upper.left2_Plane.008
v 0.197781 0.000002 -0.134499
v 0.397781 0.000002 -0.134499
v 0.197781 1.000002 -0.134499
v 0.397781 1.000002 -0.134499
vt 0.562500 0.750000
vt 0.562500 0.906250
vt 0.578125 0.906250
vt 0.578125 0.750000
vn 0.0000 0.0000 -1.0000
usemtl Material
s off
f 13/13/4 15/14/4 16/15/4 14/16/4
o leg.upper.right1_Plane.007
v -0.400040 0.000002 -0.134499
v -0.200040 0.000002 -0.134499
v -0.400040 1.000002 -0.134499
v -0.200040 1.000002 -0.134499
vt 0.562500 0.750000
vt 0.562500 0.906250
vt 0.578125 0.906250
vt 0.578125 0.750000
vn 0.0000 0.0000 -1.0000
usemtl Material
s off
f 17/17/5 19/18/5 20/19/5 18/20/5
o leg.right.low1_Plane.006
v -0.600040 -0.000000 0.456209
v -0.000040 -0.000000 0.456209
v -0.600040 -0.000000 -0.143791
v -0.000040 -0.000000 -0.143791
vt 0.500000 0.906250
vt 0.500000 1.000000
vt 0.546875 1.000000
vt 0.546875 0.906250
vn 0.0000 -1.0000 0.0000
usemtl Material
s off
f 21/21/6 23/22/6 24/23/6 22/24/6
o leg.right.low2_Plane.005
v -0.600040 -0.000000 0.456209
v -0.000040 -0.000000 0.456209
v -0.600040 -0.000000 -0.143791
v -0.000040 -0.000000 -0.143791
vt 0.500000 0.906250
vt 0.546875 0.906250
vt 0.546875 1.000000
vt 0.500000 1.000000
vn 0.0000 1.0000 0.0000
usemtl Material
s off
f 25/25/7 26/26/7 28/27/7 27/28/7
o leg.upper.right2_Plane.004
v -0.400040 0.000002 -0.134499
v -0.200040 0.000002 -0.134499
v -0.400040 1.000002 -0.134499
v -0.200040 1.000002 -0.134499
vt 0.562500 0.750000
vt 0.578125 0.750000
vt 0.578125 0.906250
vt 0.562500 0.906250
vn 0.0000 -0.0000 1.0000
usemtl Material
s off
f 29/29/8 30/30/8 32/31/8 31/32/8
o wing.right_Cube.006
v -0.797210 1.392389 0.600000
v -0.797210 2.192389 0.600000
v -0.797210 1.392389 -0.600000
v -0.797210 2.192389 -0.600000
v -0.597210 1.392389 0.600000
v -0.597210 2.192389 0.600000
v -0.597210 1.392389 -0.600000
v -0.597210 2.192389 -0.600000
vt 0.468750 0.281250
vt 0.468750 0.406250
vt 0.375000 0.406250
vt 0.375000 0.281250
vt 0.593750 0.281250
vt 0.593750 0.406250
vt 0.578125 0.406250
vt 0.578125 0.281250
vt 0.484375 0.406250
vt 0.484375 0.281250
vt 0.500000 0.593750
vt 0.484375 0.593750
vt 0.484375 0.406250
vt 0.500000 0.406250
vt 0.484375 0.593750
vt 0.468750 0.593750
vn -1.0000 -0.0000 0.0000
vn 0.0000 0.0000 -1.0000
vn 1.0000 0.0000 0.0000
vn 0.0000 0.0000 1.0000
vn 0.0000 -1.0000 0.0000
vn 0.0000 1.0000 0.0000
usemtl Material
s off
f 33/33/9 34/34/9 36/35/9 35/36/9
f 35/37/10 36/38/10 40/39/10 39/40/10
f 39/40/11 40/39/11 38/41/11 37/42/11
f 37/42/12 38/41/12 34/34/12 33/33/12
f 35/43/13 39/44/13 37/45/13 33/46/13
f 40/47/14 36/48/14 34/34/14 38/41/14
o wing.left_Cube.005
v 0.597210 1.392389 0.600000
v 0.597210 2.192389 0.600000
v 0.597210 1.392389 -0.600000
v 0.597210 2.192389 -0.600000
v 0.797210 1.392389 0.600000
v 0.797210 2.192389 0.600000
v 0.797210 1.392389 -0.600000
v 0.797210 2.192389 -0.600000
vt 0.468750 0.281250
vt 0.468750 0.406250
vt 0.375000 0.406250
vt 0.375000 0.281250
vt 0.593750 0.281250
vt 0.593750 0.406250
vt 0.578125 0.406250
vt 0.578125 0.281250
vt 0.484375 0.406250
vt 0.484375 0.281250
vt 0.500000 0.593750
vt 0.484375 0.593750
vt 0.484375 0.406250
vt 0.500000 0.406250
vt 0.484375 0.593750
vt 0.468750 0.593750
vn -1.0000 0.0000 0.0000
vn 0.0000 0.0000 -1.0000
vn 1.0000 -0.0000 0.0000
vn 0.0000 0.0000 1.0000
vn 0.0000 -1.0000 0.0000
vn 0.0000 1.0000 0.0000
usemtl Material
s off
f 41/49/15 42/50/15 44/51/15 43/52/15
f 43/53/16 44/54/16 48/55/16 47/56/16
f 47/56/17 48/55/17 46/57/17 45/58/17
f 45/58/18 46/57/18 42/50/18 41/49/18
f 43/59/19 47/60/19 45/61/19 41/62/19
f 48/63/20 44/64/20 42/50/20 46/57/20
o nose_Cube.003
v -0.400000 2.188330 1.596483
v -0.400000 2.588331 1.596483
v -0.400000 2.188330 1.196483
v -0.400000 2.588330 1.196483
v 0.400000 2.188330 1.596483
v 0.400000 2.588331 1.596483
v 0.400000 2.188330 1.196483
v 0.400000 2.588330 1.196483
vt 0.250000 0.875000
vt 0.250000 0.937500
vt 0.218750 0.937500
vt 0.218750 0.875000
vt 0.406250 0.875000
vt 0.406250 0.937500
vt 0.343750 0.937500
vt 0.343750 0.875000
vt 0.312500 0.937500
vt 0.312500 0.875000
vt 0.375000 1.000000
vt 0.312500 1.000000
vt 0.312500 0.937500
vt 0.375000 0.937500
vt 0.312500 1.000000
vt 0.250000 1.000000
vn -1.0000 0.0000 0.0000
vn 0.0000 0.0000 -1.0000
vn 1.0000 0.0000 0.0000
vn 0.0000 0.0000 1.0000
vn 0.0000 -1.0000 0.0000
vn 0.0000 1.0000 -0.0000
usemtl Material
s off
f 49/65/21 50/66/21 52/67/21 51/68/21
f 51/69/22 52/70/22 56/71/22 55/72/22
f 55/72/23 56/71/23 54/73/23 53/74/23
f 53/74/24 54/73/24 50/66/24 49/65/24
f 51/75/25 55/76/25 53/77/25 49/78/25
f 56/79/26 52/80/26 50/66/26 54/73/26
o red_Cube.002
v -0.200000 1.789634 1.398437
v -0.200000 2.189634 1.398437
v -0.200000 1.789634 0.998437
v -0.200000 2.189634 0.998437
v 0.200000 1.789634 1.398437
v 0.200000 2.189634 1.398437
v 0.200000 1.789634 0.998437
v 0.200000 2.189634 0.998437
vt 0.250000 0.750000
vt 0.250000 0.812500
vt 0.218750 0.812500
vt 0.218750 0.750000
vt 0.343750 0.750000
vt 0.343750 0.812500
vt 0.312500 0.812500
vt 0.312500 0.750000
vt 0.281250 0.812500
vt 0.281250 0.750000
vt 0.312500 0.875000
vt 0.281250 0.875000
vt 0.281250 0.812500
vt 0.312500 0.812500
vt 0.281250 0.875000
vt 0.250000 0.875000
vn -1.0000 0.0000 0.0000
vn 0.0000 -0.0000 -1.0000
vn 1.0000 0.0000 0.0000
vn 0.0000 0.0000 1.0000
vn 0.0000 -1.0000 0.0000
vn 0.0000 1.0000 0.0000
usemtl Material
s off
f 57/81/27 58/82/27 60/83/27 59/84/27
f 59/85/28 60/86/28 64/87/28 63/88/28
f 63/88/29 64/87/29 62/89/29 61/90/29
f 61/90/30 62/89/30 58/82/30 57/81/30
f 59/91/31 63/92/31 61/93/31 57/94/31
f 64/95/32 60/96/32 58/82/32 62/89/32
o body_Cube.001
v -0.600000 0.992391 -0.800000
v -0.600000 0.992391 0.800000
v -0.600000 2.192391 -0.800000
v -0.600000 2.192391 0.800000
v 0.600000 0.992391 -0.800000
v 0.600000 0.992391 0.800000
v 0.600000 2.192391 -0.800000
v 0.600000 2.192391 0.800000
vt 0.093750 0.281250
vt 0.093750 0.531250
vt -0.000000 0.531250
vt -0.000000 0.281250
vt 0.375000 0.281250
vt 0.375000 0.531250
vt 0.281250 0.531250
vt 0.281250 0.281250
vt 0.187500 0.531250
vt 0.187500 0.281250
vt 0.281250 0.718750
vt 0.187500 0.718750
vt 0.187500 0.531250
vt 0.281250 0.531250
vt 0.187500 0.718750
vt 0.093750 0.718750
vn -1.0000 0.0000 0.0000
vn 0.0000 1.0000 0.0000
vn 1.0000 0.0000 0.0000
vn 0.0000 -1.0000 -0.0000
vn 0.0000 0.0000 -1.0000
vn 0.0000 0.0000 1.0000
usemtl Material
s off
f 65/97/33 66/98/33 68/99/33 67/100/33
f 67/101/34 68/102/34 72/103/34 71/104/34
f 71/104/35 72/103/35 70/105/35 69/106/35
f 69/106/36 70/105/36 66/98/36 65/97/36
f 67/107/37 71/108/37 69/109/37 65/110/37
f 72/111/38 68/112/38 66/98/38 70/105/38
o head_Cube
v -0.400000 1.790286 1.198363
v -0.400000 2.990285 1.198363
v -0.400000 1.790286 0.598363
v -0.400000 2.990286 0.598363
v 0.400000 1.790286 1.198363
v 0.400000 2.990285 1.198363
v 0.400000 1.790286 0.598363
v 0.400000 2.990286 0.598363
vt 0.046875 0.718750
vt 0.046875 0.906250
vt 0.000000 0.906250
vt 0.000000 0.718750
vt 0.218750 0.718750
vt 0.218750 0.906250
vt 0.156250 0.906250
vt 0.156250 0.718750
vt 0.109375 0.906250
vt 0.109375 0.718750
vt 0.171875 1.000000
vt 0.109375 1.000000
vt 0.109375 0.906250
vt 0.171875 0.906250
vt 0.109375 1.000000
vt 0.046875 1.000000
vn -1.0000 0.0000 0.0000
vn 0.0000 0.0000 -1.0000
vn 1.0000 0.0000 0.0000
vn 0.0000 0.0000 1.0000
vn 0.0000 -1.0000 0.0000
vn 0.0000 1.0000 0.0000
usemtl Material
s off
f 73/113/39 74/114/39 76/115/39 75/116/39
f 75/117/40 76/118/40 80/119/40 79/120/40
f 79/120/41 80/119/41 78/121/41 77/122/41
f 77/122/42 78/121/42 74/114/42 73/113/42
f 75/123/43 79/124/43 77/125/43 73/126/43
f 80/127/44 76/128/44 74/114/44 78/121/44
