# Blender v2.93.2 OBJ File: 'zombie.blend'
# www.blender.org
mtllib zombie.mtl
o leg.left_Cube.006
v 0.000099 0.002361 0.400000
v 0.000099 2.402361 0.400000
v 0.000099 0.002361 -0.400000
v 0.000099 2.402361 -0.400000
v 0.800099 0.002361 0.400000
v 0.800099 2.402361 0.400000
v 0.800099 0.002361 -0.400000
v 0.800099 2.402361 -0.400000
vt 0.187500 0.500000
vt 0.187500 0.687500
vt 0.125000 0.687500
vt 0.125000 0.500000
vt 0.187500 0.500000
vt 0.187500 0.687500
vt 0.250000 0.687500
vt 0.250000 0.500000
vt 0.000000 0.500000
vt 0.000000 0.687500
vt 0.062500 0.687500
vt 0.062500 0.500000
vt 0.125000 0.500000
vt 0.125000 0.687500
vt 0.062500 0.687500
vt 0.062500 0.500000
vt 0.187500 0.750000
vt 0.125000 0.750000
vt 0.125000 0.687500
vt 0.187500 0.687500
vt 0.125000 0.750000
vt 0.062500 0.750000
vn -1.0000 0.0000 0.0000
vn 0.0000 0.0000 -1.0000
vn 1.0000 0.0000 0.0000
vn 0.0000 0.0000 1.0000
vn 0.0000 -1.0000 0.0000
vn 0.0000 1.0000 0.0000
usemtl Material.002
s off
f 1/1/1 2/2/1 4/3/1 3/4/1
f 3/5/2 4/6/2 8/7/2 7/8/2
f 7/9/3 8/10/3 6/11/3 5/12/3
f 5/13/4 6/14/4 2/15/4 1/16/4
f 3/17/5 7/18/5 5/19/5 1/20/5
f 8/21/6 4/22/6 2/15/6 6/14/6
o arm.right_Cube.005
v -1.524796 4.867337 1.992963
v -1.610799 4.792724 -0.404340
v -1.524763 4.067725 2.017849
v -1.610765 3.993112 -0.379454
v -0.725310 4.866479 1.964309
v -0.811313 4.791866 -0.432994
v -0.725277 4.066868 1.989194
v -0.811279 3.992254 -0.408108
vt 0.687500 0.500000
vt 0.687500 0.687500
vt 0.625000 0.687500
vt 0.625000 0.500000
vt 0.875000 0.500000
vt 0.875000 0.687500
vt 0.812500 0.687500
vt 0.812500 0.500000
vt 0.750000 0.687500
vt 0.750000 0.500000
vt 0.750000 0.750000
vt 0.812500 0.750000
vt 0.812500 0.687500
vt 0.750000 0.687500
vt 0.750000 0.750000
vt 0.687500 0.750000
vn -0.9994 0.0011 0.0358
vn 0.0000 -0.9995 0.0311
vn 0.9994 -0.0011 -0.0358
vn -0.0000 0.9995 -0.0311
vn 0.0358 0.0311 0.9989
vn -0.0358 -0.0311 -0.9989
usemtl Material.002
s off
f 9/23/7 10/24/7 12/25/7 11/26/7
f 11/27/8 12/28/8 16/29/8 15/30/8
f 15/30/9 16/29/9 14/31/9 13/32/9
f 13/32/10 14/31/10 10/24/10 9/23/10
f 11/33/11 15/34/11 13/35/11 9/36/11
f 16/37/12 12/38/12 10/24/12 14/31/12
o arm.left_Cube.004
v 0.721404 4.805117 1.970828
v 0.811932 4.813013 -0.427458
v 0.720560 4.005124 1.968163
v 0.811089 4.013020 -0.430124
v 1.520834 4.804174 2.001002
v 1.611362 4.812069 -0.397285
v 1.519991 4.004181 1.998336
v 1.610519 4.012076 -0.399950
vt 0.812500 0.500000
vt 0.812500 0.687500
vt 0.750000 0.687500
vt 0.750000 0.500000
vt 0.812500 0.500000
vt 0.812500 0.687500
vt 0.875000 0.687500
vt 0.875000 0.500000
vt 0.625000 0.500000
vt 0.625000 0.687500
vt 0.687500 0.687500
vt 0.687500 0.500000
vt 0.750000 0.687500
vt 0.750000 0.500000
vt 0.812500 0.750000
vt 0.750000 0.750000
vt 0.750000 0.687500
vt 0.812500 0.687500
vt 0.750000 0.750000
vt 0.687500 0.750000
vt 0.687500 0.687500
vt 0.750000 0.687500
vn -0.9993 0.0012 -0.0377
vn -0.0011 -1.0000 -0.0033
vn 0.9993 -0.0012 0.0377
vn 0.0011 1.0000 0.0033
vn -0.0377 -0.0033 0.9993
vn 0.0377 0.0033 -0.9993
usemtl Material.002
s off
f 17/39/13 18/40/13 20/41/13 19/42/13
f 19/43/14 20/44/14 24/45/14 23/46/14
f 23/47/15 24/48/15 22/49/15 21/50/15
f 21/50/16 22/49/16 18/51/16 17/52/16
f 19/53/17 23/54/17 21/55/17 17/56/17
f 24/57/18 20/58/18 18/59/18 22/60/18
o body_Cube.002
v -0.800000 2.400761 0.400000
v -0.800000 4.800761 0.400000
v -0.800000 2.400761 -0.400000
v -0.800000 4.800761 -0.400000
v 0.800000 2.400761 0.400000
v 0.800000 4.800761 0.400000
v 0.800000 2.400761 -0.400000
v 0.800000 4.800761 -0.400000
vt 0.312500 0.500000
vt 0.312500 0.687500
vt 0.250000 0.687500
vt 0.250000 0.500000
vt 0.625000 0.500000
vt 0.625000 0.687500
vt 0.500000 0.687500
vt 0.500000 0.500000
vt 0.437500 0.687500
vt 0.437500 0.500000
vt 0.562500 0.750000
vt 0.437500 0.750000
vt 0.437500 0.687500
vt 0.562500 0.687500
vt 0.437500 0.750000
vt 0.312500 0.750000
vn -1.0000 0.0000 0.0000
vn 0.0000 0.0000 -1.0000
vn 1.0000 0.0000 0.0000
vn 0.0000 0.0000 1.0000
vn 0.0000 -1.0000 0.0000
vn 0.0000 1.0000 0.0000
usemtl Material.002
s off
f 25/61/19 26/62/19 28/63/19 27/64/19
f 27/65/20 28/66/20 32/67/20 31/68/20
f 31/68/21 32/67/21 30/69/21 29/70/21
f 29/70/22 30/69/22 26/62/22 25/61/22
f 27/71/23 31/72/23 29/73/23 25/74/23
f 32/75/24 28/76/24 26/62/24 30/69/24
o leg.right_Cube.001
v -0.799661 0.002361 0.400000
v -0.799661 2.402361 0.400000
v -0.799661 0.002361 -0.400000
v -0.799661 2.402361 -0.400000
v 0.000339 0.002361 0.400000
v 0.000339 2.402361 0.400000
v 0.000339 0.002361 -0.400000
v 0.000339 2.402361 -0.400000
vt 0.062500 0.500000
vt 0.062500 0.687500
vt 0.000000 0.687500
vt 0.000000 0.500000
vt 0.250000 0.500000
vt 0.250000 0.687500
vt 0.187500 0.687500
vt 0.187500 0.500000
vt 0.125000 0.687500
vt 0.125000 0.500000
vt 0.187500 0.750000
vt 0.125000 0.750000
vt 0.125000 0.687500
vt 0.187500 0.687500
vt 0.125000 0.750000
vt 0.062500 0.750000
vn -1.0000 0.0000 0.0000
vn 0.0000 0.0000 -1.0000
vn 1.0000 0.0000 0.0000
vn 0.0000 0.0000 1.0000
vn 0.0000 -1.0000 0.0000
vn 0.0000 1.0000 0.0000
usemtl Material.002
s off
f 33/77/25 34/78/25 36/79/25 35/80/25
f 35/81/26 36/82/26 40/83/26 39/84/26
f 39/84/27 40/83/27 38/85/27 37/86/27
f 37/86/28 38/85/28 34/78/28 33/77/28
f 35/87/29 39/88/29 37/89/29 33/90/29
f 40/91/30 36/92/30 34/78/30 38/85/30
o head_Cube
v -0.800000 4.787049 0.800000
v -0.800000 6.387050 0.800000
v -0.800000 4.787049 -0.800000
v -0.800000 6.387050 -0.800000
v 0.800000 4.787049 0.800000
v 0.800000 6.387050 0.800000
v 0.800000 4.787049 -0.800000
v 0.800000 6.387050 -0.800000
vt 0.125000 0.750000
vt 0.125000 0.875000
vt 0.000000 0.875000
vt 0.000000 0.750000
vt 0.500000 0.750000
vt 0.500000 0.875000
vt 0.375000 0.875000
vt 0.375000 0.750000
vt 0.250000 0.875000
vt 0.250000 0.750000
vt 0.375000 1.000000
vt 0.250000 1.000000
vt 0.250000 0.875000
vt 0.375000 0.875000
vt 0.250000 1.000000
vt 0.125000 1.000000
vn -1.0000 0.0000 0.0000
vn 0.0000 0.0000 -1.0000
vn 1.0000 0.0000 0.0000
vn 0.0000 0.0000 1.0000
vn 0.0000 -1.0000 0.0000
vn 0.0000 1.0000 0.0000
usemtl Material.002
s off
f 41/93/31 42/94/31 44/95/31 43/96/31
f 43/97/32 44/98/32 48/99/32 47/100/32
f 47/100/33 48/99/33 46/101/33 45/102/33
f 45/102/34 46/101/34 42/94/34 41/93/34
f 43/103/35 47/104/35 45/105/35 41/106/35
f 48/107/36 44/108/36 42/94/36 46/101/36
